<mxfile host="Electron" agent="Mozilla/5.0 (Macintosh; Intel Mac OS X 10_15_7) AppleWebKit/537.36 (KHTML, like Gecko) draw.io/25.0.2 Chrome/128.0.6613.186 Electron/32.2.5 Safari/537.36" version="25.0.2">
  <diagram name="第 1 页" id="FkTp9OQEZ6wErj5kJJwZ">
    <mxGraphModel dx="1106" dy="845" grid="0" gridSize="10" guides="1" tooltips="1" connect="1" arrows="1" fold="1" page="1" pageScale="1" pageWidth="827" pageHeight="1169" math="0" shadow="0">
      <root>
        <mxCell id="0" />
        <mxCell id="1" parent="0" />
        <mxCell id="QeE7AU9Mmnq67cAiNnj4-3" value="" style="ellipse;whiteSpace=wrap;html=1;" vertex="1" parent="1">
          <mxGeometry x="689" y="618" width="97.36" height="100" as="geometry" />
        </mxCell>
        <mxCell id="X8aKufBDVbInQCgFyZBN-2" value="" style="ellipse;whiteSpace=wrap;html=1;fillColor=#f5f5f5;fontColor=#333333;strokeColor=#666666;" parent="1" vertex="1">
          <mxGeometry x="207" y="580" width="429.74" height="429.35" as="geometry" />
        </mxCell>
        <mxCell id="X8aKufBDVbInQCgFyZBN-3" value="" style="ellipse;whiteSpace=wrap;html=1;" parent="1" vertex="1">
          <mxGeometry x="372.32" y="622" width="97.36" height="100" as="geometry" />
        </mxCell>
        <mxCell id="X8aKufBDVbInQCgFyZBN-7" value="" style="ellipse;whiteSpace=wrap;html=1;aspect=fixed;fillColor=none;strokeWidth=8;strokeColor=#999999;" parent="1" vertex="1">
          <mxGeometry x="223.53" y="596.33" width="396.68" height="396.68" as="geometry" />
        </mxCell>
        <mxCell id="X8aKufBDVbInQCgFyZBN-4" value="" style="endArrow=none;html=1;rounded=0;entryX=0;entryY=0.5;entryDx=0;entryDy=0;" parent="1" target="X8aKufBDVbInQCgFyZBN-3" edge="1">
          <mxGeometry width="50" height="50" relative="1" as="geometry">
            <mxPoint x="270" y="672" as="sourcePoint" />
            <mxPoint x="290" y="630" as="targetPoint" />
          </mxGeometry>
        </mxCell>
        <mxCell id="X8aKufBDVbInQCgFyZBN-5" value="" style="endArrow=none;html=1;rounded=0;exitX=0.088;exitY=0.213;exitDx=0;exitDy=0;exitPerimeter=0;entryX=0.885;entryY=0.184;entryDx=0;entryDy=0;entryPerimeter=0;" parent="1" target="X8aKufBDVbInQCgFyZBN-7" edge="1">
          <mxGeometry width="50" height="50" relative="1" as="geometry">
            <mxPoint x="469.68" y="671.5" as="sourcePoint" />
            <mxPoint x="560" y="672" as="targetPoint" />
          </mxGeometry>
        </mxCell>
        <mxCell id="X8aKufBDVbInQCgFyZBN-6" value="" style="rounded=1;whiteSpace=wrap;html=1;arcSize=50;rotation=-90;" parent="1" vertex="1">
          <mxGeometry x="405" y="910" width="30" height="60" as="geometry" />
        </mxCell>
        <mxCell id="QeE7AU9Mmnq67cAiNnj4-1" value="" style="shape=image;verticalLabelPosition=bottom;labelBackgroundColor=default;verticalAlign=top;aspect=fixed;imageAspect=0;image=data:image/png,iVBORw0KGgoAAAANSUhEUgAABJ0AAAbsCAYAAAC9UeIKAAABVGlDQ1BERUxMIFAyMjE5SAAAKJF1kLFLAnEYhp8zSzAHkasWh1siBAu7DGo0kwocDitSt/M0LdR+nFfR1uxs/QEN0tziUEM0BwVBQVNt7cERlFyDlVr0Lt/Dw/fBxwsuny5E2Q1UqpaZWlpQ0pms4nnBS4AxhhjSjZqIaVoS4Hv2x75HArib1IUol/Ya8Ym3Z/vanD1xnTWP/u73xZsv1AzgA1ANYVogRQBt3xIWSIeAbKYzWZAagFzs8Ckg5zp8AcjmWioO0i3gN0p6HqQnIJzr8cUerpR3ja8fJMBXqK6vAqNAkEUSJEmioKGiMs08y/DPTRQIEmcHwQEmWxQpYaEQQyAoU0BhhSoGU4RRUImgEk1nssrvDrvOSICaA266brsO5yPgn+u6kAcCdbgaF7qp/zQr2e7a5oza4eEWDB47zusGeELQfnCc95bjtJsw8AiX9ieEg2LN2HMOfAAAAAlwSFlzAAAXEgAAFxIBZ5/SUgAABfppVFh0WE1MOmNvbS5hZG9iZS54bXAAAAAAADw/eHBhY2tldCBiZWdpbj0i77u/IiBpZD0iVzVNME1wQ2VoaUh6cmVTek5UY3prYzlkIj8+IDx4OnhtcG1ldGEgeG1sbnM6eD0iYWRvYmU6bnM6bWV0YS8iIHg6eG1wdGs9IkFkb2JlIFhNUCBDb3JlIDUuNi1jMTQ1IDc5LjE2MzQ5OSwgMjAxOC8wOC8xMy0xNjo0MDoyMiAgICAgICAgIj4gPHJkZjpSREYgeG1sbnM6cmRmPSJodHRwOi8vd3d3LnczLm9yZy8xOTk5LzAyLzIyLXJkZi1zeW50YXgtbnMjIj4gPHJkZjpEZXNjcmlwdGlvbiByZGY6YWJvdXQ9IiIgeG1sbnM6eG1wPSJodHRwOi8vbnMuYWRvYmUuY29tL3hhcC8xLjAvIiB4bWxuczp4bXBNTT0iaHR0cDovL25zLmFkb2JlLmNvbS94YXAvMS4wL21tLyIgeG1sbnM6c3RFdnQ9Imh0dHA6Ly9ucy5hZG9iZS5jb20veGFwLzEuMC9zVHlwZS9SZXNvdXJjZUV2ZW50IyIgeG1sbnM6ZGM9Imh0dHA6Ly9wdXJsLm9yZy9kYy9lbGVtZW50cy8xLjEvIiB4bWxuczpwaG90b3Nob3A9Imh0dHA6Ly9ucy5hZG9iZS5jb20vcGhvdG9zaG9wLzEuMC8iIHhtcDpDcmVhdG9yVG9vbD0iQWRvYmUgUGhvdG9zaG9wIENDIDIwMTkgKE1hY2ludG9zaCkiIHhtcDpDcmVhdGVEYXRlPSIyMDI0LTEyLTI0VDA2OjM5OjUwKzA4OjAwIiB4bXA6TWV0YWRhdGFEYXRlPSIyMDI0LTEyLTI0VDA2OjM5OjUwKzA4OjAwIiB4bXA6TW9kaWZ5RGF0ZT0iMjAyNC0xMi0yNFQwNjozOTo1MCswODowMCIgeG1wTU06SW5zdGFuY2VJRD0ieG1wLmlpZDozMjAzZjYyZS1jMjkwLTQ5MTQtYjg5OC0wNjViYjNjMWQ4OWMiIHhtcE1NOkRvY3VtZW50SUQ9ImFkb2JlOmRvY2lkOnBob3Rvc2hvcDpiNTBlYzQzYi1lOTM5LWQ5NDctOGQ4My1mMmI3MWU0ZDY4YjgiIHhtcE1NOk9yaWdpbmFsRG9jdW1lbnRJRD0ieG1wLmRpZDo1ZTQ2MDg1MS1kYmI5LTQ5MDktYmE5MC1mNzA3ZDVlN2UzZjAiIGRjOmZvcm1hdD0iaW1hZ2UvcG5nIiBwaG90b3Nob3A6Q29sb3JNb2RlPSIzIiBwaG90b3Nob3A6SUNDUHJvZmlsZT0iREVMTCBQMjIxOUgiPiA8eG1wTU06SGlzdG9yeT4gPHJkZjpTZXE+IDxyZGY6bGkgc3RFdnQ6YWN0aW9uPSJjcmVhdGVkIiBzdEV2dDppbnN0YW5jZUlEPSJ4bXAuaWlkOjVlNDYwODUxLWRiYjktNDkwOS1iYTkwLWY3MDdkNWU3ZTNmMCIgc3RFdnQ6d2hlbj0iMjAyNC0xMi0yNFQwNjozOTo1MCswODowMCIgc3RFdnQ6c29mdHdhcmVBZ2VudD0iQWRvYmUgUGhvdG9zaG9wIENDIDIwMTkgKE1hY2ludG9zaCkiLz4gPHJkZjpsaSBzdEV2dDphY3Rpb249InNhdmVkIiBzdEV2dDppbnN0YW5jZUlEPSJ4bXAuaWlkOjMyMDNmNjJlLWMyOTAtNDkxNC1iODk4LTA2NWJiM2MxZDg5YyIgc3RFdnQ6d2hlbj0iMjAyNC0xMi0yNFQwNjozOTo1MCswODowMCIgc3RFdnQ6c29mdHdhcmVBZ2VudD0iQWRvYmUgUGhvdG9zaG9wIENDIDIwMTkgKE1hY2ludG9zaCkiIHN0RXZ0OmNoYW5nZWQ9Ii8iLz4gPC9yZGY6U2VxPiA8L3htcE1NOkhpc3Rvcnk+IDwvcmRmOkRlc2NyaXB0aW9uPiA8L3JkZjpSREY+IDwveDp4bXBtZXRhPiA8P3hwYWNrZXQgZW5kPSJyIj8+ZAYhgwAAfZFJREFUeJzs3XmYXFWBPuCvlVFElgBxZE1CZAmyJiAoIqAijCir4CCiICqLCorgNu6igwubIAI6yioi8AMVQXFAQTZZEnYJiBDCokiQRBAZRfP74wbsLjpJdfp03b5V7/s89cg5VZ3+7KRvbn8551Tf3LlzAwAAAAAlPa/uAAAAAAB0H6UTAAAAAMUpnQAAAAAoTukEAAAAQHFKJwAAAACKUzoBAAAAUJzSCQAAAIDilE4AAAAAFKd0AgAAAKA4pRMAAAAAxSmdAAAAAChO6QQAAABAcUonAAAAAIpTOgEAAABQnNIJAAAAgOKUTgAAAAAUp3QCAAAAoDilEwAAAADFKZ0AAAAAKE7pBAAAAEBxSicAAAAAilM6AQAAAFCc0gkAAACA4pROAAAAABSndAIAAACgOKUTAAAAAMUpnQAAAAAoTukEAAAAQHFKJwAAAACKUzoBAAAAUJzSCQAAAIDilE4AAAAAFKd0AgAAAKA4pRMAAAAAxSmdAAAAAChO6QQAAABAcUonAAAAAIpTOgEAAABQnNIJAAAAgOKUTgAAAAAUp3QCAAAAoDilEwAAAADFKZ0AAAAAKE7pBAAAAEBxSicAAAAAilM6AQAAAFCc0gkAAACA4pROAAAAABSndAIAAACgOKUTAAAAAMUpnQAAAAAoTukEAAAAQHFKJwAAAACKUzoBAAAAUJzSCQAAAIDilE4AAAAAFKd0AgAAAKA4pRMAAAAAxSmdAAAAAChO6QQAAABAcUonAAAAAIpTOgEAAABQnNIJAAAAgOKUTgAAAAAUp3QCAAAAoDilEwAAAADFKZ0AAAAAKE7pBAAAAEBxSicAAAAAilM6AQAAAFCc0gkAAACA4pROAAAAABSndAIAAACgOKUTAAAAAMUpnQAAAAAoTukEAAAAQHFKJwAAAACKUzoBAAAAUJzSCQAAAIDilE4AAAAAFKd0AgAAAKA4pRMAAAAAxSmdAAAAAChO6QQAAABAcUonAAAAAIpTOgEAAABQnNIJAAAAgOKUTgAAAAAUp3QCAAAAoDilEwAAAADFKZ0AAAAAKE7pBAAAAEBxSicAAAAAilM6AQAAAFCc0gkAAACA4pROAAAAABSndAIAAACgOKUTAAAAAMUpnQAAAAAoTukEAAAAQHFKJwAAAACKUzoBAAAAUJzSCQAAAIDilE4AAAAAFKd0AgAAAKA4pRMAAAAAxSmdAAAAAChO6QQAAABAcUonAAAAAIpTOgEAAABQnNIJAAAAgOKUTgAAAAAUp3QCAAAAoDilEwAAAADFKZ0AAAAAKE7pBAAAAEBxSicAAAAAilM6AQAAAFCc0gkAAACA4pROAAAAABSndAIAAACgOKUTAAAAAMUpnQAAAAAoTukEAAAAQHFKJwAAAACKUzoBAAAAUJzSCQAAAIDilE4AAAAAFKd0AgAAAKA4pRMAAAAAxSmdAAAAAChO6QQAAABAcUonAAAAAIpTOgEAAABQnNIJAAAAgOKUTgAAAAAUp3QCAAAAoDilEwAAAADFKZ0AAAAAKE7pBAAAAEBxSicAAAAAilM6AQAAAFCc0gkAAACA4pROAAAAABSndAIAAACgOKUTAAAAAMUpnQAAAAAoTukEAAAAQHFKJwAAAACKUzoBAAAAUJzSCQAAAIDilE4AAAAAFKd0AgAAAKA4pRMAAAAAxSmdAAAAAChO6QQAAABAcUonAAAAAIpTOgEAAABQnNIJAAAAgOKUTgAAAAAUp3QCAAAAoDilEwAAAADFKZ0AAAAAKE7pBAAAAEBxSicAAAAAilM6AQAAAFCc0gkAAACA4pROAAAAABSndAIAAACgOKUTAAAAAMUpnQAAAAAoTukEAAAAQHFKJwAAAACKUzoBAAAAUJzSCQAAAIDilE4AAAAAFKd0AgAAAKA4pRMAAAAAxSmdAAAAAChO6QQAAABAcUonAAAAAIpTOgEAAABQnNIJAAAAgOKUTgAAAAAUp3QCAAAAoDilEwAAAADFKZ0AAAAAKE7pBAAAAEBxSicAAAAAilM6AQAAAFCc0gkAAACA4pROAAAAABSndAIAAACgOKUTAAAAAMUpnQAAAAAoTukEAAAAQHFKJwAAAACKUzoBAAAAUJzSCQAAAIDilE4AAAAAFKd0AgAAAKA4pRMAAAAAxSmdAAAAAChO6QQAAABAcUonAAAAAIpTOgEAAABQnNIJAAAAgOKUTgAAAAAUp3QCAAAAoDilEwAAAADFKZ0AAAAAKE7pBAAAAEBxSicAAAAAilM6AQAAAFCc0gkAAACA4pROAAAAABSndAIAAACgOKUTAAAAAMUpnQAAAAAoTukEAAAAQHFKJwAAAACKUzoBAAAAUJzSCQAAAIDilE4AAAAAFKd0AgAAAKA4pRMAAAAAxSmdAAAAAChO6QQAAABAcUonAAAAAIpTOgEAAABQnNIJAAAAgOKUTgAAAAAUp3QCAAAAoDilEwAAAADFKZ0AAAAAKE7pBAAAAEBxSicAAAAAilM6AQAAAFCc0gkAAACA4pROAAAAABSndAIAAACgOKUTAAAAAMUpnQAAAAAoTukEAAAAQHFKJwAAAACKUzoBAAAAUJzSCQAAAIDilE4AAAAAFKd0AgAAAKA4pRMAAAAAxSmdAAAAAChO6QQAAABAcUonAAAAAIpTOgEAAABQnNIJAAAAgOKUTgAAAAAUp3QCAAAAoDilEwAAAADFKZ0AAAAAKE7pBAAAAEBxSicAAAAAilM6AQAAAFCc0gkAAACA4pROAAAAABSndAIAAACgOKUTAAAAAMUpnQAAAAAoTukEAAAAQHFKJwAAAACKUzoBAAAAUJzSCQAAAIDilE4AAAAAFKd0AgAAAKA4pRMAAAAAxSmdAAAAAChO6QQAAABAcUonAAAAAIpTOgEAAABQnNIJAAAAgOKUTgAAAAAUp3QCAAAAoDilEwAAAADFKZ0AAAAAKE7pBAAAAEBxSicAAAAAilM6AQAAAFCc0gkAAACA4pROAAAAABSndAIAAACgOKUTAAAAAMUpnQAAAAAoTukEAAAAQHFKJwAAAACKUzoBAAAAUJzSCQAAAIDilE4AAAAAFKd0AgAAAKA4pRMAAAAAxSmdAAAAAChO6QQAAABAcUonAAAAAIpTOgEAAABQnNIJAAAAgOKUTgAAAAAUp3QCAAAAoDilEwAAAADFKZ0AAAAAKE7pBAAAAEBxSicAAAAAilM6AQAAAFCc0gkAAACA4pROAAAAABSndAIAAACgOKUTAAAAAMUpnQAAAAAoTukEAAAAQHFKJwAAAACKUzoBAAAAUJzSCQAAAIDilE4AAAAAFKd0AgAAAKA4pRMAAAAAxSmdAAAAAChO6QQAAABAcUonAAAAAIpTOgEAAABQnNIJAAAAgOKUTgAAAAAUp3QCAAAAoDilEwAAAADFKZ0AAAAAKE7pBAAAAEBxSicAAAAAilM6AQAAAFCc0gkAAACA4pROAAAAABSndAIAAACgOKUTAAAAAMUpnQAAAAAoTukEAAAAQHFKJwAAAACKUzoBAAAAUJzSCQAAAIDilE4AAAAAFKd0AgAAAKA4pRMAAAAAxSmdAAAAAChO6QQAAABAcUonAAAAAIpTOgEAAABQnNIJAAAAgOKUTgAAAAAUp3QCAAAAoDilEwAAAADFKZ0AAAAAKE7pBAAAAEBxSicAAAAAilM6AQAAAFCc0gkAAACA4pROAAAAABSndAIAAACgOKUTAAAAAMUpnQAAAAAoTukEAAAAQHFKJwAAAACKUzoBAAAAUJzSCQAAAIDilE4AAAAAFKd0AgAAAKA4pRMAAAAAxSmdAAAAAChO6QQAAABAcUonAAAAAIpTOgEAAABQnNIJAAAAgOKUTgAAAAAUp3QCAAAAoDilEwAAAADFKZ0AAAAAKE7pBAAAAEBxSicAAAAAilM6AQAAAFCc0gkAAACA4pROAAAAABSndAIAAACgOKUTAAAAAMUpnQAAAAAoTukEAAAAQHFKJwAAAACKUzoBAAAAUJzSCQAAAIDilE4AAAAAFKd0AgAAAKA4pRMAAAAAxSmdAAAAAChO6QQAAABAcUonAAAAAIpTOgEAAABQnNIJAAAAgOKUTgAAAAAUp3QCAAAAoDilEwAAAADFKZ0AAAAAKE7pBAAAAEBxSicAAAAAilM6AQAAAFCc0gkAAACA4pROAAAAABSndAIAAACgOKUTAAAAAMUpnQAAAAAoTukEAAAAQHFKJwAAAACKUzoBAAAAUJzSCQAAAIDilE4AAAAAFKd0AgAAAKA4pRMAAAAAxSmdAAAAAChO6QQAAABAcUonAAAAAIpTOgEAAABQnNIJAAAAgOKUTgAAAAAUp3QCAAAAoDilEwAAAADFKZ0AAAAAKE7pBAAAAEBxSicAAAAAilM6AQAAAFCc0gkAAACA4pROAAAAABSndAIAAACgOKUTAAAAAMUpnQAAAAAoTukEAAAAQHFKJwAAAACKUzoBAAAAUJzSCQAAAIDilE4AAAAAFKd0AgAAAKA4pRMAAAAAxSmdAAAAAChO6QQAAABAcUonAAAAAIpTOgEAAABQnNIJAAAAgOKUTgAAAAAUp3QCAAAAoDilEwAAAADFKZ0AAAAAKE7pBAAAAEBxSicAAAAAilM6AQAAAFCc0gkAAACA4pROAAAAABSndAIAAACgOKUTAAAAAMUpnQAAAAAoTukEAAAAQHFKJwAAAACKUzoBAAAAUJzSCQAAAIDilE4AAAAAFKd0AgAAAKA4pRMAAAAAxSmdAAAAAChO6QQAAABAcUonAAAAAIpTOgEAAABQnNIJAAAAgOKUTgAAAAAUp3QCAAAAoDilEwAAAADFKZ0AAAAAKE7pBAAAAEBxSicAAAAAilM6AQAAAFCc0gkAAACA4pROAAAAABSndAIAAACgOKUTAAAAAMUpnQAAAAAoTukEAAAAQHFKJwAAAACKUzoBAAAAUJzSCQAAAIDilE4AAAAAFKd0AgAAAKA4pRMAAAAAxSmdAAAAAChO6QQAAABAcUonAAAAAIpTOgEAAABQnNIJAAAAgOKUTgAAAAAUp3QCAAAAoDilEwAAAADFKZ0AAAAAKE7pBAAAAEBxSicAAAAAilM6AQAAAFCc0gkAAACA4pROAAAAABSndAIAAACgOKUTAAAAAMUpnQAAAAAoTukEAAAAQHFKJwAAAACKUzoBAAAAUJzSCQAAAIDilE4AAAAAFKd0AgAAAKA4pRMAAAAAxSmdAAAAAChO6QQAAABAcUonAAAAAIpbrO4AQHv6+vrqjgCMPsskWSHJS5O8JMnYJMsnWS7JmHnPL51kqSQvTrJEkhclWTzJC5L8W6p7gecneeYiMzfJP5I8neTvSf6W5Kkkf03yZJK/JHk8yZ+TzEkyO8mfkjyaZFaSR5I8nOQP856HrjJ37ty6IwBAY/T5ixOaQekEPWl8kolJVksyIcm4JKsmWSXJyqmKpNHsL0keTPJAkvuTzEwyI8m9Se5Jcl9tyWARuXcGgPYpnaAhlE7QtZZIsk6Stec91kqyZpI1Uq1G6mZ/S/LbJHcluTPJHfMet6daVQWjjntnAGif0gkaQukEXWGVJJOTbJhk/XmPNesMNIrdleSWeY+bktyYasUU1Mq9MwC0T+kEDaF0gsZZKsmmSTZJ8ookG6cqnUp6MsnvU52h9MdUZyo9muqMpcdSnbf051RnMP1l3uOvqc5o+luqM5ueTnWG0zM3BH2pznhaLNWZTy9IdQbUi1Jt53vxvP9vS6c6N2rZVGdILZ/qTKl/T3XG1IqpVnGV9ECSG5Jcn+S6JNfO+/8GHePeGQDap3SChlA6wai3UpLXJHl1ks2SbFTg1/xjqrOP7kl1FtJ9qc5FeiDVWUmPFfgcI2nZVGdPrZLqPKrxqc6mmjjv8e8FPsfUJFcnuSrJFUkeKvBrwny5dwaA9imdoCGUTjDqLJ/ktfMeW6Y6l2lR3ZXqHKM7kkxPdb7RbzP6S6XhWjbV2VVrJZmU6kyrdTK8LYe3J7k8yS/nPR4dZkYYwL0zALRP6QQNoXSCUWHzJNsk2TrJqxbh459KMi3V+UQ3z3vcmmrLG//yoiTrJdlg3mNykimptvkN1TVJLkny8yRXlgpI73LvDADtUzpBQyidoBbLJNlu3uM/Up1ZNBS3pTp36LpU5xDdWDRd75mc6nysTVKdl7XuED9+VpKfJblo3mNO0XT0BPfOANA+pRM0hNIJOmaVJDsk2T5V0TQUV6daTXPVvIetXSNr+VRnaL061Sq0zYb48T9LckGSH8c749Em984A0D6lEzSE0glG1CpJdp73eO0QPm5akl8kuSzVOUJPFE/GUCyZ6nytrZK8LtWWvHb9Msn58x4KKObLvTMAtE/pBA2hdILilkny1iS7pjqnqR2zklyc6nygS+Kd0ka7lVKdv7VNkm3T/vbInyc5N8nZsQWPFu6dAaB9SidoCKUTFLNjkrcl+c82X39r/nUG0K9GKhQdsUX+dUbXem1+zA+SfD/Jj0YqFM3i3hkA2qd0goZQOsGwrJdkzyRvT7JyG6//daqS4YIkt49gLuqzTqpzu3ZM8so2Xv9gku8lOSNVEUmPcu8MAO1TOkFDKJ1gkbwzyV6pzvdZmGuTnDfvcfdIhmLUWT3JLvMem7bx+l8kOTXJaSMZitHJvTMAtE/pBA2hdIK2rZVkn3mPhZ3hc0eqc3vOiRVNVNZJsluq877WXshrZyX57rzHnSOci1HCvTMAtE/pBA2hdIKFemOS96Z6B7oF+XOSM1Od0+OMJhZki1Tnf+2RZOmFvPb8JN9O8tORDkW93DsDQPuUTtAQSieYr/cm2S/JRgt53SVJTk91Ls8/RjoUXeX5qc4De0eqd8NbkKlJTkpVQNGF3DsDQPuUTtAQSicYYJkk70/yviz4YPBHk5yc6vyd2zqQi+63bqpzwt6VZPkFvO7BJN9McnySOR3IRYe4dwaA9imdoCGUTpAkWSXJgfMeL1rA665O8p1UZ+3ASNknybuTbLaA1/w1yXHzHg90IhQjy70zALRP6QQNoXSix01M8qFUZdOCnJnkW0kuH+lA0M+WSfZNdfbTghyX5Jgk94x0IEaOe2cAaJ/SCRpC6USPmpjkkFTb6ObnyVTbmE5M8rtOhIL5eFmS/VP9eV1iAa/7ZpIjo3xqJPfOANA+pRM0hNKJHrNKko8kOWgBr3kwyTdSnZnzeCdCQZuWSnXm2Aey4DPHjk3ytdh21yjunQGgfUonaAilEz1imSQfT/KxJPP7Q//bJF9PVTbBaPf+JB9MssZ8np+b5CtJvhwHjjeCe2cAaJ/SCRpC6UQP+GiS/0pVPA3mjiRHx1vR00zvTXJwkrXn8/ycJP+d5KsdS8Qice8MAO1TOkFDKJ3oYnsn+WSS1efz/F1Jjoiyie7w3iSHJllzPs/fneRLSU7pVCCGxr0zALRP6QQNoXSiC70+yWeSbDGf5+9Pte3INjq60ftTbSNddT7P/yrJF5Jc2rFEtMW9MwC0T+kEDaF0oouMT/L5JHvN5/k/Jzk81Rk30O0+nuQTSZaez/OnJvlskvs6logFcu8MAO1TOkFDKJ3oEp9ItXpjsfk8f0Sqc20e61giqN+yqc4zO3Q+zz+dalXg4R1LxHy5dwaA9imdoCGUTjTcm1KdU7PBfJ4/M8lhSaZ3LBGMPpOSfDrJHvN5/uZU559d2LFEPId7ZwBon9IJGkLpREOtkGp1xt7zef7qVFvtft6pQNAA26TaUrfZfJ4/JdWqwT90KhD/4t4ZANqndIKGUDrRQPulOgh8mUGeezTVdqFvdjQRNMv7Um1HXX6Q5+akOoj8pI4mQukEAEPwvLoDANB11k7ykyQnZvDC6fgka0ThBAvzzVTfK4O9g+Myqb7HfpLqew4AYNSx0gkawkonGuKQVIeBD+bqVIclX965ONA1tkx1yP78ttwdmuTIzsXpXe6dAaB9SidoCKUTo9w6SY5KdRZNq3+kelv4+ZVRQPsOTfLlJM8f5LmfJ/lwkts7mqjHuHcGgPbZXgfAcB2Y5NYMXjj9MMnLo3CCUo5I9T31w0Ge2ybV9+KBnQwEADA/VjpBQ1jpxCi0SpJjk+w8yHN/TrUi49sdTQS95b2pSqilB3nu/CQHJXmgo4l6gHtnAGiflU4ALIrdk9yUwQunc1Jtt1M4wcj6dqrvtXMGeW7nVN+ju3cyEABAf0onAIbq2CTfz3Pfxv2vSfZL8tZYXQGd8kCq77n9Un0P9rd8qu/VYzsdCgAgsb0OGsP2OkaBKaneov0Vgzz301Rbee7uaCKgv9VTFUxvHOS565Psn2RaRxN1IffOANA+K50AaMe+SaZm8MLpE0m2i8IJ6nZ3qu/FTwzy3CtSfQ/v29FEAEBPs9IJGsJKJ2p0QqoVEq1uTfL+JFd0Ng7QhtckOT7JeoM8d2KSAzobp3u4dwaA9imdoCGUTtRg7STfSfKqQZ77n1Q/tD7d0UTAUCyWqjR+zyDPXZPk3Unu6GiiLuDeGQDaZ3sdAIPZNcm1Gbxw2i/VW7UrnGB0ezrV9+p+gzz3qlTf47t2NBEA0FOUTgC0+nSqt2BfqmX+xlTnwnyr44mA4fhWqu/dG1vml0r1vf7pjicCAHqC7XXQELbX0QF9SU5Lsucgz52aaouO1U3QXIul2hq71yDPnZHknUncGC6Ee2cAaJ+VTgAkycuSXJXBC6ePJNk7CidouqdTfS9/ZJDn9kx1DXhZJwMBAN3NSidoCCudGEGvT7XKYYWW+VmpfkC9sNOBgBH3piSnJBnbMv+HVAXUpZ0O1BTunQGgfVY6AfS2vZNckucWTlenOmhY4QTd6cJU3+NXt8yvkOqasHenAwEA3UfpBNC7/ivJyYPMn5Hk1Unu7mwcoMPuTvW9fsYgz52c6hoBALDIlE4AvenYJF8aZP6wJO/ocBagXu9I9b3f6kuprhUAAIvEmU7QEM50oqCzkvznIPP7Jvl2h7MAo8d7k3xrkPkfJNm9w1lGLffOANA+pRM0hNKJApZJcm6SrVvm/5zkbUku6ngiYLTZLsn3kyzdMn9Jkl2TzOl4olHGvTMAtM/2OoDeMC7VD42thdNvk2wVhRNQuSjVNeG3LfNbp7qGjOt0IACguZROAN1vnST/m2Tjlvmrk7w2yY0dTwSMZjemuja0vrPdxqmuJet0PBEA0EhKJ4Du9ookFydZs2X+J0len+TBjicCmuDBVNeIn7TMr5nqmvKKjicCABpH6QTQvTZP8rMkK7fMfy/J9kme6ngioEmeSnWt+F7L/Mqpri2bdzwRANAoSieA7vTaVD8ULtcyf2KSPTsfB2iwPVNdO/pbLtU15rWdjwMANIXSCaD7bJ3qMOAXt8wfleSAzscBusABqa4h/b041bWm9Q0KAACSKJ0Aus3WSS5MsnjL/H8nOaTzcYAuckiqa0l/i6e65iieAIDnUDoBdI/XJrkgyQta5j+f5JOdjwN0oU+muqb094JU1x5b7QCAAfrmzp1bdwagDX19fXVHYHR75tDw1i11n0lyWOfjAF3u00m+0DL3lyT/keTKzsfpHPfOANA+K50Amu8VSX4UhRPQOYelusb09+JU16JXdD4OADAaKZ0Amm2dJOfnue9S9/konICRdVieu9VuuVTXpHU6HwcAGG1sr4OGsL2OQYxL8r9J1myZ/+84wwnonC8l+a+WubuSvCHJzM7HGVnunQGgfUonaAilEy2WSXJJko1b5o+Kd6kDOu/IJB9umbsh1bvazel8nJHj3hkA2qd0goZQOtHif/Pctyg/MckBNWQBSJITkuzfMndJqhVPXcO9MwC0z5lOAM1zVp5bOH0vCiegXgekuhb1t3WqaxYA0IOUTgDNcmyS/2yZ+0mSPWvIAtBqz1TXpP7+M9W1CwDoMUongOb4ryQHtsxdnWS3GrIAzM9uqa5N/R2Y5x42DgB0OWc6QUM406nn7Z3k5Ja53yZ5bZIHO54GYMFWTvLLJGu0zL8rySkdT1OQe2cAaJ/SCRpC6dTTXp/qMN7+/pxkqyQ3djwNQHsmJ7ksydIt81snubTjaQpx7wwA7bO9DmB0e1mSMwaZf1sUTsDodmOqa1WrM1Jd2wCALqd0Ahi9+pKcnmSFlvl9k1zU+TgAQ3ZRqmtWfyukurZZwgsAXU7pBDB6nZbkVS1zhyX5dg1ZABbVt1Ndu/p7VaprHADQxZROAKPTp1O99Xh/ZyT5TA1ZAIbrM3nuVuE9U13rAIAu5SBxaAgHifeUXZOc0zJ3dZJX15AFoKSrkmzWMrdbknNryLJI3DsDQPuUTtAQSqeesXaSa5Ms1W9uVqqtKHfXkgignNWTXJNkbL+5x5NsmuSOWhINkXtnAGif7XUAo8t3MrBwSpK9o3ACusPdqa5p/S2V6toHAHQZpRPA6HFCnntw+EeSXFhDFoCRcmGqa1t/r0p1DQQAuojtddAQttd1vX2TnNQyd2qeuyIAFmSxJOOTrJpk5SQrJnlpkpckWT7JskmWSbJkkhcnWTzJC+d93DP/EPXPJE8n+b8kTyX5S5InksxJ8liSR5M8kuThJL9P8mCS+5PcN+/joF2nJNmrZW6/JN/qfJT2uXcGgPYpnaAhlE5dbUqSqS1zNybZJH6IZ3ArJlk31Rlgk5KsmeRlSSbUmClJZiT5XZK7kkxPdUbPbanKKWi1WJLrkkxumd8oybTOx2mPe2cAaJ/SCRpC6dTVrkvyipa5VyS5oYYsjD4rpiogN05VUE6eN9ckv09VpE5L9ef6uiiiqGyc5PqWuetT/Zkfldw7A0D7lE7QEEqnrnVskgNb5kb99hJG1MuSbJlk8ySvTrWKqRvdleSqJFcmuTzVCil602Dbi49LclANWRbKvTMAtE/pBA2hdOq8uXPnjvTXffck32+Z+58k7x3JT8qos0SSbZO8Icnr070l08LcleTSJP+b5OIkT9Ybhw77dpL3tMy9LclZNWRZIPfOANA+pRM0hNKps565No7g132VJDelOtz5Gbem2j7lHKfut2qS7ZO8Kcl2NWcZrS5K9S5nF6Q6qJzutliq7Zfr9Zt7NMmGSR6oI9D8uHcGgPYpnaAhlE6d0/+6OIJf9/OS7Nwyt0WSK0bqE1K7lZO8JckuqbbP0b7LU33P/L9U75ZHd3pNkl+1zJ2f6ntm1HDvDADtUzpBQyidOqP1mjhCX/cDU53l1N8nknx5JD4ZtVosyR5J/jNWNJVyUZIfJDkzVgV2o48nObxl7qBUZzyNCu6dAaB9SidoCKXTyFrQtbDw136dVNvo+v+iP41Cotu8Msk7k+yZZKmas3Srx5OckeS0JL+uOQtlXZTkjf3Gc1Ntu7u9njgDuXcGgPYpnaAhlE4jZ2HXwcJf+4uTbNNv/Nck6ye5u+QnoTb7zHu8uu4gPeaqJN+d96D5Vk9yS5IX9Zv7eaoD92vn3hkA2ve8ugMA1KnDPzwckoGFU5J8KAqnplsxyeeT/CHJd6JwqsOrU33t/5Dq92LFeuMwTHenujb2t02qaygA0CBWOkFDWOlU3lCufwW+/msn+U3L3DlJ3jrcX5jarJ3qfK4D6g7CoE5IdQ7QHXUHYZGdnWS3lrmXp+bfU/fOANA+pRM0hNKpnEW57hX4+v8kyZv6jf+c6nynUfVW4LRlw1SrMPaqNwZtOjXJMUluqjcGi2CVVOc4Ld1v7sIkb64nTsW9MwC0z/Y6oKfU9MPCfhlYOCXJoVE4Nc26SU5JcmMUTk2yV6rfs1NS/R7SHA+kulb296ZU11QAoAGsdIKGsNJp+IZzvRvG13+FJNOTLNNv7odJdl7kMHTaqkk+EdvousUJSQ5Pcn/dQWjb+Ul26jeek2RSqjO8Os69MwC0z0onoCcM94eEYXz84RlYOP0jyceGFYZOWSzVodQzonDqJgek+j39fKrfY0a/j6W6dj5jmVTXVgBglFM6AV1t7ty5df6r9JuS7N0y9/Ekd3U+CkO0T5LfJflM/F3ZjZ6X6vf2d6l+rxnd7kp17exv7zx32zIAMMrYXgcNYXvd0JW+vi3C78FNSTboN7461Vu7M3q9MskXk7y+7iB01KVJPpXk13UHYYGuSrJZv/HNqQ727yj3zgDQPv96C3SlkfihYIi/5icysHBKkv8ql4bCFkvytSTXROHUi16f6vf+a7HlbjRrvYZukOpaCwCMUlY6QUNY6dS+kbyutfn7MD7J3Rn4w+vxST4wEpkYtp2TfDXJ6nUHYVS4O8lHUx1ezejzjSTv7zd+OtX37n2dCuDeGQDap3SChlA6LVwnrmdt/j6ckupt2p/xaJI1kjw2ApFYdEsmOSrJe+sOwqj07SQfTvJE3UEYYNkkv02yfL+5U/Pc8/NGjHtnAGif7XVAVxhFPwS8PgMLp6Q6sFjhNLrsmOTWKJyYv/em+jOyY91BGOCxVNfU/vaKbbEAMCpZ6QQNYaXT/HX6OraQ34vLk2zRb+zw8NHnqCQH1x2CRjk61aonRo/WQ8V/lWTLTnxi984A0D4rnYBGG2U3/3tnYOGUJJ+vIQeDm5Lq3ckUTgzVwan+7EypOwjPar22bpEObrEDANpjpRM0hJVOA9V57VrA78VvM/Aw6jOTvH3EA9GOfZOcVHcIusJ+Sb5VdwiSJN9Lske/8d2pzs8bUe6dAaB9VjoBjVP3Df98Pv9H89x3Pzts5NPQhm9G4UQ5J6X6M0X9Wq+xq6e6FgMAo4SVTtAQVjr9y2i4brX8fiyT6u26l+k3d0SSj3QyE8/xsiQnJ3lN3UHoSlckeVeS39UdpMd9Lcmh/cZzkoyf978jYjT8HQQATWGlE8DwfTwDC6c/J/nvmrJQeWOSa6JwYuS8JtWfsTfWHaTH/Xeqa+4zlkl1TQYARgGlE8DwrJLkYy1zh6d6W2/q8b4kFyV5Sd1B6HovSfVn7X11B+lhj6W65vb3sVTXZgCgZkongEXQb3vFR5L032t3f5IvdzwQzzg8yfF1h6DnHJ/nFh90zpdTXXuf0RfbmwFgVHCmEzSEM50GGg3Xrr6+vpWTPNAy/YEoPepySpK96g5BTzs1yd51h+hR70/yjZa5lyW5p/QnGg1//wBAU1jpBLAI5pWA/9UyfVcUTnVYIsmFUThRv71S/Vlcou4gPej4VNfg/g6pIwgA8C9WOkFDWOk0UN3Xrr6+vv9J8u5aQwCj1TVJ3pLk93UH6THvTfKtlrniq53q/vsHAJrESieAIerr61s6yX/WnQMYtV6V5OepCg8659tJ7miZ+1ANOQCAeZROAEP39iRL1h0CGNXWTfKzJGvXHaTHHN0yPjDeyQ4AamN7HTSE7XUD1Xnt6uvruynJBv2mZtYUpVeNqzsADMGMJNsnua3mHL3kriRr9Bt/NcnHSv3i7p0BoH1KJ2gIpdNAdV27HnvssU3Hjx//68cff/yZqZlf+cpXPvbRj370rFoC9ZhbbrllzPbbb//YzJl6PhplRpLt8tytX4yM1ney+2uSFZPMKfGLu3cGgPbZXgc0Ul0l3BFHHLFfv8IpK6200kMKp86YPn36EjvuuOOPFE400IQkP44znjrl+CQP9hu/KFURBQB0mNIJoH1jTj755P4HiM/cZ599Tq4tTY/Zeeedz58xY8YWdeeARbR6kh+mWnHDyPtGy/h9taQAgB6ndAJo0zHHHPP23//+90s8M1566aX/fNhhh7W+PTcjYKONNjp/+vTpk+rOAcO0bpL/l2SJhb2QYTs+yZP9xisneW9NWQCgZymdANr0ne98Z7/+4z322OP7dWXpJa973etOnTZt2pQ4QJzu8Kok59Qdogc8nuSbLXP7DfZCAGDkKJ0A2nDeeee96rbbbluv39TMD37wg8fUladX7Lbbbkf+8pe/3CoKJ7rLdklOqTtEDzixZbxRkjfWEQQAepXSCaAN3/rWt97df7zTTjv9cNKkSU/O7/UM34EHHvjRc889d9conOhOeyU5vO4QXe53Sc5smbPFDgA6SOkEsBC33XbbkhdffPGAA8T333//k2oL1AO+9rWv7f6Nb3zj/VE40d0+Hgdcj7TWc/d2TrJWHUEAoBcpnYDG6uvr68jnOfHEE9+aZMlnxhtttNG0bbfd9jcd+eQ96Pzzz9/4ox/96FeicKI3HB9bvkbS5Umubpnbp44gANCLlE4AC/GDH/yg/w8oM/faa69TawvT5aZPn77Efvvtd1IUTvSWU5O8rO4QXew7LWOlEwB0SN/cuXPrzgC0oVOreppmpK9hJ5544qQDDjjgjmfGY8eOnfbII49sNKKftIdtsskm/+/666/fpe4cUIMrkmxRd4guNivJ8v3GeyU5bVF+IffOANA+K50AFuD0008f8C/iu+22m7c6HyF77bXXYddff/3GdeeAmrwmyTfrDtHFTm4Z71VLCgDoMVY6QUNY6TS4kbyG3XDDDf/2ile84v4kL503NXPq1KkbTZkyZdaIfdIedfTRR+/64Q9/+MjYVgf75bmHXzN86ya5tWVu/UHmFsq9MwC0z0ongPk45ZRT3pR/FU559atffbXCqbxrrrlmFYUTPOukJFPqDtGFbktyScvcnnUEAYBeonQCmI/zzz//3f2GM/fcc8/TawvTxd73vvcdH4UT9Geb3chovYa/vZYUANBDlE5Ao43UtsOzzjprpYceeug/nhmPGTNm9v7773/RiHyyHrbffvt96qabbtqw7hwwymya5Ki6Q3Sh7yX5c7/xykl2rCkLAPQEpRPAIM4888x3JlnsmfH222//kxrjdKWzzjprs29961vvjVVOMJiDoxAp7R9JzmyZe1sdQQCgVzhIHBrCQeLzV/o69thjj/Utt9xydyZZY97UzIsvvnjbbbbZZnrRT9Tjxo8ff8XMmTM3rzsHjGIzkqyX5Imac3STLZJc3jI3Jsmcdn8B984A0D4rnQBanHbaaa/JvwqnrLHGGncrnMp6+9vffvjMmTOtcIIFmxDb7Er7VZI7WubeWkcQAOgFSieAFuedd17/A8Sz4447/qiuLN3ozDPP3PzMM8/cI7bVQTvem2TnukN0mbNbxrvWkgIAeoDtddAQttfNX8nr2IwZM5ZebbXVfp9kiXlTM6dNm7bR5MmTZxX7JD1utdVWu3zGjBlb1J0DGuTuJGsnebruIF1inSS3tcytmuSBdj7YvTMAtM9KJ4B+zjrrrLflX4VTNtxww5sUTuUccMAB/zVjxowJdeeAhlk9yeF1h+gitye5tmXOajIAGAFKJ6DxSq4C+/GPf7xP//EOO+xwQbFfvMddfvnlE0888cT9YlsdLIpDk7yy7hBd5LyWsdIJAEaA7XXQELbXLViJa9m999673sSJE2/pNzXzN7/5zTprr722d44qYPPNN//+VVddtXvdOaDBLk2ydd0husTqSX7bMtfWFjv3zgDQPiudAOY599xzBxwgPnny5JsUTmV84xvf2OGqq67arO4c0HCvT7LPQl9FO+5O8uuWuR3qCAIA3UzpBFB5wYUXXrhn/4ntttvuwrrCdJuvfOUrH4ttdVDCZ5MsVneILtH6zqTb15ICALqY0gkgyZ/+9KcdL7/88uX7Tc18y1ve0nrmB4vg0EMPPeiBBx5Ype4c0CXGJfl03SG6ROuZff+RZJk6ggBAt1I6ASQ5//zzt+s/njRp0nTvWjd8995772LHHXfcgbHKCUr6VKrzhxie25Pc2jK33WAvBAAWjdIJIMmFF174hv7jrbfe+tK6snSTz33uc5/929/+tnrdOaDLPC/JJ+oO0SUuahkrnQCgIKUT0BWG+e5+61xxxRUr9xvP3H777X88zEg9b9q0aWNPO+20d9adA7rUAUnWrTtEF2gtnf6jlhQA0KWUTkDPu+SSS94wa9a/dtKNHTt21jbbbDO9xkhd4ctf/vInYlsdjKRD6w7QBX6VpP9W6rFJNq8pCwB0HaUT0PN++tOfDthat/nmm19ZV5Zuce211650zjnn7Fp3DuhyeyXZsO4QXeDilvE2taQAgC6kdAJ63Qsvu+yyLfuNZ2677batP4AwREccccQhscoJOuFDdQfoAj9vGW9dSwoA6EJ9c+fOrTsD0IZhnlnUExblevbHP/7xdS996Uv7Hxo+c+7cuePLpeo9N99883IbbrjhjVE6Qae8PMkddYdosJWSPNgyNzbJo4O92L0zALTPSiegp/3sZz8bsLVu3XXXva2uLN3iqKOOOjgKJ+ikA+sO0HAPJZnWMvfaOoIAQLdROgE97Re/+EXreU5X1ZWlW3jHOui4A5KsWHeIhvtFy1jpBAAFKJ2ArrEIWxDH/vrXv57cbzzz9a9//SUFI/WcQw899KC6M0CP2r/uAA13Wct4y8FeBAAMjTOdoCGc6dSeoVzTZs6cufv48eO/33/KeU7Ds8IKK1z/8MMPb1x3DuhBDydZoe4QDbZkksdb5lZOtfVuAPfOANA+K52AnnXppZcO2Fq30UYbtZ7pwRB84xvf2OHhhx/+97pzQI96aZJ96g7RYE8kubpl7jV1BAGAbqJ0AnrWlVdeOaB0euUrX3lNXVm6wSmnnPKuOEAc6qR0Gp4rW8avriUFAHQRpRPQq9a+/vrrV+03nrn55pu3/sBBmy677LKJU6dOnVJ3Duhxr07yyrpDNFjrG0lsVksKAOgiSiegJ82ZM2e7W2+9dcDc7rvv3rq1gjadfPLJVjnB6ODdIxdda+m0UZKl6ggCAN1C6QT0pF/96ldv6j9ea6217qorSzf48Y9/vEPdGYAkyZ5JFqs7REM9muS2lrlN6wgCAN1C6QR0lXbe5a+vr2+Za665ZvP+c5MnT3aI+CI68cQTt5s9e/aYunMASaqVOXvUHaLBrm0Zb1JLCgDoEkonoBdtM23atH/rP7HJJptcX1eYpjv77LP/M7bWwWjyn3UHaLDrWsavqCUFAHQJpRPQi958220DdlDM3GyzzZzntAjuu+++5/3yl7/cqu4cwADbJVm57hAN1foPEBvXkgIAuoTSCegpfX19z0/y5gcffPDZuSWXXPKJTTfd9KH6UjXXmWeeuUescoLR6C11B2ioG5M81W+8yrwHALAIlE5Ar3lVkuX6TzhEfNH96Ec/2rHuDMCgdqk7QIO1nvE3uZYUANAFlE5Ar3lT68R66613Sx1Bmu7ee+9d7Nprr3XILoxOWyZZte4QDXVjy3jDOkIAQDdQOgG95jml0wYbbHBzHUGa7txzz901ttbBaLZ93QEaqvXvhPVrSQEAXUDpBHSdvr6++c1PSLJey/TMjTbaqHUrBW346U9/+sa6MwAL9JySnbYonQCgkL65c+fWnQFow/yKFAY32LWtr6/voCRfb5meOXfu3PEdCdVl+vr67ouVTjDavTjJk3WHaJgX5blfs2e/ju6dAaB9VjoBveQ5/+o/ceLEe+oI0nTf+973tqg7A9CWbesO0EB/TdL6BhPr1BEEAJpO6QT0hL6+viVTHaw7wBprrHF3DXEa7+c///kbYpUTNMEb6g7QULe3jNeuJQUANJzSCegVWyd5YevkWmutdWcNWRrvyiuv3LzuDEBbXl93gIa6o2WsdAKARaB0AnrFoIdev/zlL/9Np4M03fTp05e45557JtadA2jLmkleVneIBpreMl6rlhQA0HBKJ6BXvG6QuZlKp6H73//9321iax00yXO2FrNQratg16wlBQA0nNIJ6Er93+1v3n+vPtjrXvOa18zoTKLuceWVV7667gzAkNgOO3S/bRmvUUsKAGg4pRPQs/793//9j3VnaKIbbrhh47ozAEOiKB66x5L0/zviBUnG15QFABpL6QT0rJVXXvmhujM0kfOcoHHWTLJi3SEa6J6WsWsfAAyR0gnoWePGjZtZd4amOeusszarOwOwSDapO0ADtZZOq9WSAgAaTOkEdLX+Zzu1Gj9+/H0djNIVrrvuuk3iEHFoIttih25Gy3hCDRkAoNGUTkDPWm211Vr/FZuFuOmmmybXnQFYJFPqDtBArf8woXAHgCFSOgE9a/z48bbXDdEdd9wxqe4MwCJRGA9d698Rq9aSAgAaTOkEdK0Fba1LMnP8+PEzOhSla/zhD39Yoe4MwCJZMQ4TH6oHWsar1JICABpM6QT0rClTpsyqO0OTXHDBBRvWnQEYlnXrDtAwD7aMV64lBQA0mNIJ6ElLL730n+vO0DS33XbbunGmCTTZ2nUHaJjHkjzZb/ziJMvUlAUAGknpBPSk5ZZb7k91Z2ia6dOnr1V3BmBYnMk2dL9vGdtiDABDoHQCetLyyy+vdBqi3/3ud6vXnQEYljXrDtBAD7eMX1pLCgBoKKUT0JOWX3555zkN0f333+8QXWi2l9UdoIH+2DJ+SS0pAKChlE5AT7LSaehmzpzpPCdotglJFqs7RMO0/gPF2FpSAEBDKZ2AnrT88ss/WneGJpk+ffoSdWcAihhfd4CGaf27YvlaUgBAQymdgJ7kIPGhmTFjxoR45zroBqvWHaBhWv+uWK6WFADQUEonoCcpnYbm/vvvVzhBd1i57gAN81jLeEwdIQCgqZROQE8aM2bM7LozNMlDDz20Ut0ZgCJWrDtAw8xuGS9TRwgAaCqlE9CTlllmmdl1Z2iShx9++N/rzgAU8dK6AzTMn1vGS9eSAgAaSukE9KSll1669QcJFmDWrFneJhy6g+/loXm8ZbxULSkAoKGUTkBPWnLJJZ+oO0OT/OlPf3J4LnQH7742NH9pGb+4lhQA0FBKJ6AnLbXUUkqnIZgzZ44tJdAdlq07QMO0lk5L1JICABpK6QT0oplLLLHEk3WHaJLHH39c6QTdwUHYQ/PXlvGLakkBAA2ldAJ60vjx4/9Zd4YmefLJJ/3rPnSHJesO0DBPtYwXryUFADSU0gmAhXrqqaf8oAXdwZlEQ/O3lvELakkBAA2ldAJgof72t7/5QQu6gwJ5aP7eMv63WlIAQEMpnQBYqL///e+L1Z0BKOKFdQdomKdbxq6FADAESicAFurpp5/2gxZ0B9/LQ/OPlvHza0kBAA2ldAJgoWyvg67h3m9o5raM+2pJAQAN5cYDAAAAgOKUTgAs1Ate8ILWd3ACmumfdQdomNaVTa0rnwCABVA6AbBQiy22WOthukAz+V4emtYznFrPeAIAFkDpBMBCWekEXeP/6g7QMK0HryvtAGAIlE4ALNS//du/+UELusNTdQdomH9rGf+9lhQA0FBKJwAWavHFF/eDKnSHv9QdoGFa37nTqk8AGAKlE9CT7rvvPte/IVhiiSWerDsDUMQTdQdomMVbxgp4ABgCP3QBvWjck08+uUTdIZpkySWX9IMqdIc5dQdomBe1jP9aSwoAaCilE9CTHn/88SXrztAkY8aMmV13BqCIx+oO0DAvbhlb9QkAQ6B0AnrSX/7yF6XTECy77LJ/qjsDUMSjdQdomNbSyZlYADAESiegJ82ZM2fpujM0yUte8pJH6s4AFOF7eWiWahk/XksKAGgopRPQk+bMmTOm7gxN8tKXvvSPdWcAini47gAN0/oPFH+uJQUANJTSCehJs2fPHlN3hiZZaaWVHqo7A1DE7+sO0DBjWsYOYgeAIVA6AT3pT3/603J1Z2iSVVdddWbdGYAiHqw7QMMs2zKeXUcIAGgqpRPQk5ROQzNhwoQZSRRP0Hz31x2gYVr/rvCmCgAwBEonoCc9+uijy9edoUkmTZrkbcKhO9xXd4CGaf27wrv/AcAQKJ2AnvToo49a6TREq6666gN1ZwCGZUaSp+sO0TBjW8azakkBAA2ldAJ60qxZs1p/kGAhxo0bZ3sdNNvv6g7QQP/eMn6klhQA0FBKJ6AnOdNp6F72spfdXXcGYFjuqjtAA720ZfxwLSkAoKGUTkBPevTRR610GqJJkybdWXcGYFim1x2ggVZsGf+hlhQA0FBKJ6AnPf7440vWnaFp1llnndviHeygye6oO0DDLJtkiX7jvySZU1MWAGgkpRPQs6ZNm2a10xDssMMON9WdARiW2+oO0DArt4wfrCUFADSY0gnoVePuu+++CXWHaJoVVljB1hJopt/Pe9C+VVrG3sETAIZI6QT0rBkzZkyoO0PTrL322s6EgWa6se4ADTSuZXx/LSkAoMGUTkDPUjoN3YYbbugHV2imaXUHaKDxLWNn2gHAECmdgJ41c+bMVevO0DSveMUrbogfvKCJbqg7QANNaBnPqCEDADSa0gnoWc50Grq3ve1tV9adAVgk19UdoIEmtozvrSUFADSY0gnoWQ8++OBKdWdoookTJ95TdwZgSO6KQ8QXRWvp5NoHAEOkdAJ61h//+Md/rztDE2288ca26UCzXFV3gAZaNkn/vyP+luS+mrIAQGMpnYCedsUVV0yoO0PTvOY1r7mi7gzAkNgWO3RrtIx/W0sKAGi4xeoOALRtbt0ButC4LbbY4vK6QwCMMNe5oVurZXxXLSkAoOGUTkCvG1d3gCaaOHFi7rnH8SbQAHcl+V3dIRpoUsv4zlpSAEDD2V4HwJBtvvnmdUcA2nNp3QEaau2W8R21pACAhrPSCeh1M+sO0CDPrAqbuc0227zjtNNOOz1WisFo9791B2iodVrGSicAWAR9c+c6JgaaoK+vr/Wbta+WIM01v4vdzLlz547vaJIG6uvruy/9Sqe5c+eOb5kDRqcXJ3my7hAN86I892v27NfRvTMAtM/2OqDn/epXv5pQd4Ymeu1rX3tZ3RmABbooCqdFsV7L+K74OgLAIlE6Ab1u3I033jil7hBNtN12211YdwZggXyPLpoNWsa31JICALqA0gnoeTfddFPrDxi04S1vect5cSYWjGYX1B2goZROAFCI0gnoebfeeuv6dWdootVWW+3pTTfd9Lq6cwCDujzJ/XWHaKjJLeOb6ggBAN1A6QT0vDvvvHPNujM01Y477vijujMAgzqv7gAN1rrl+sZaUgBAF1A6AT1ppZVWeva/n3jiiSWvvfbalRbwcuZjjz32ODO22MFo9P/qDtBQk5Ms3m/8wLwHALAIlE5AT1p33XX7D8ddffXVm9WVpcnGjx//T+9iB6PORUkerDtEQ72iZXxDLSkAoEsonYCetPHGGw8YX3fdda0/aNCmt771rT+I1U4wmvyg7gANtknL+PpaUgBAl+ibO3du3RmANvT19bV+s/bVEqS5Bnz9Jk6cmHvuuefZ8VprrXXJnXfe+YaOp2qO+5KMm/ffM+fOnTu+/5PLLrvszbNnz3YgO9Tv8STLJXm67iANdWuS/kth35Dkkv4vcO8MAO2z0gnoSf0Lp8Rh4sO1ww47/LjuDECS5IwonBbV8hlYOCXJtXUEAYBuoXQCetaECRMGjL///e8712kR7bPPPifHFjsYDU6rO0CDvbplPDXVyjEAYBEpnYCetdxyy/Ufjrviiiu2qCtL02255Zb3bLTRRtPqzgE97qokv647RIO1lk5X15ICALqI0gnoWU899dSA8bXXXrtpTVG6wl577XVqrHaCOn237gANt3nL+KpaUgBAF3GQODSEg8SHrZ2L3cwk4xf6qt60wIPEn/HSl770+j/+8Y8bD/YcMKIeTrJC3SEabMk8dyvdykkean2he2cAaJ+VTkBPW2WVVQaMzznnnNa3y2YI9txzz+/Faieow0l1B2i4LVvGt2eQwgkAGBqlE9DTXvKSl/QfjvvFL37xurqydIMjjzzymLozQI86se4ADbdVy/jyOkIAQLdROgE97a9//euA8RVXXPGamqJ0jXe+853ePQs664Qkv687RMO1/oPDL2tJAQBdxplO0BDOdBq2di92znUaXFtnOiXJLbfcMmaDDTa4ud/rgZH18iR31B2iwVZK8mDL3Ngkjw72YvfOANA+K52Anjdx4sQB429+85tvrilKV1h//fVn77bbbufWnQN6xKlROA3X1i3jazKfwgkAGBqlE9DzxowZ03847uc///kbaorSNQ499NCvxYHi0AnH1B2gC2zTMr6klhQA0IWUTkDP++Mf/zhgfOWVV25eU5Susckmm/xh1113tdoJRtapSW6qO0QX2LZl/PNaUgBAF1I6AT3vgQceGLDaadasWWMvvvjiSfUl6g6f+MQnDo/VTjCSjqg7QBfYItX5Tc+YleTKmrIAQNdROgEkGTduwJnX4y644IId6srSLaZMmTLLO9nBiDkhyW11h+gC27WMf1ZLCgDoUkongCT/+Mc/BowvueSS19cUpat87nOf+/wLXvCCu+vOAV3mn0kOrztEl2gtnS6qJQUAdCmlE0CS22+/fcB4+vTpk6ZNmzZ2Pi+nTautttrTH/jAB46PbXZQ0heT3F93iC6wTpL1WuaUTgBQkNIJYJ5JkwYc4zTuvPPO26WuLN3kyCOPPGaVVVZ5oO4c0CVmJjms7hBdYvuW8c+SzKkjCAB0K6UTwDyLL774gPGFF174ppqidJ2PfexjX4nVTlDC55M8XXeILrFjy/iCWlIAQBfrmzt3bt0ZgDb09fW1frP21RKkuRZ6sXve856Xf/7zn/2nZv7mN79Z5+Uvf/kTIxerMe5L8sxp6zPnzp07fqi/wKtf/ervX3311buXjQU95dIkW9cdokusnuS3LXOrJlnoqkz3zgDQPiudAOb55z//mTXXXLP/1LizzjpLSVLIl770pU/GaicYjk/VHaCLtG6f/mXaKJwAgKFROgH0s8QSSwwYX3DBBa1nfrCIttpqq3sOOOCAE6J4gkVxRJJf1x2ii7SWTufXkgIAupztddAQttcNW1sXu8G22E2bNm2jKVOmzBqZWI0x7O11z5g4ceLl99577xZlYkFPuDvJ2nGWUynrJLmtZa6trXWJ7XUAMBRWOgH0889//jNrrbVW/6lxZ5555h515elGhx122KdjtRMMxUejcCppt5bxz2NrHQCMCKUTQIsXvvCFA8Y/+tGPWt/hiGF4+9vf/qs99tjjzCieoB3fjq1fpb21ZXxuLSkAoAfYXgcNYXvdsA3nYjfz4osv3nbbbbedXixN8xTbXveMcePGXXX//fdvNtxfB7rYjCTrJfEOmuVskeTylrkxSea0+wu4dwaA9lnpBDCI9dZbr/9w3BlnnPGOurJ0q6985Ssfi9VOsCAfisKptLe1jH+QIRROAMDQKJ0ABvG3v/1twPiCCy54c01Rutbb3va2K/fdd99vR/EEgzk6yY/qDtFlnp+k9Yy+79cRBAB6hdIJYBB33nlnxo4d++x49uzZY0444YTtaozUlU466aQvbrjhhjfVnQNGmWuTfLjuEF3o7UmW7jd+MIo9ABhRSieA+Rg3btyAoS12I+Ob3/zm+2O1E/T3vroDdKnWa/j3akkBAD1E6QQwHzNmzBgwvuqqqzabOnXq2MFfzaJ61ate9cBRRx11SBRPkCT7JZlWd4gutG6SrVvmzqgjCAD0EqUTwHz86U9/ypprrtl/atz//M//vKeuPN3s4IMPPved73znaVE80dtOSPKtukN0qb1axr9IcmsdQQCglyidABbgBS94wYDx2Wef/Z81Rel6p5566qc32WST6+rOATW5IrbVjaR3tYxPrSUFAPQYpRPAAtx2220ZM2bMs+NHH310ueOOO26H+hJ1t1NPPXWvl7zkJbYW0WseyXNLEcrZJ8ny/cazkpxWUxYA6ClKJ4CFmDhxYv/huFNOOcUPhyNk0qRJT5544on7xTY7esteSX5Xd4gu9u6W8XdrSQEAPUjpBLAQd91114Dx1KlTp/zsZz97eU1xut4uu+xyw1e/+tWPRfFEb3h/kp/WHaKLbZlks5Y5pRMAdIjSCWAhnnjiiayzzjr9p8bNW43DCPnIRz5y1gc+8IHjo3iiu305yTfrDtHl9m0Zn5/kzjqCAEAvUjoBtOGpp54aMP7hD3+40x133LFETXF6wnHHHffV3Xbb7dwonuhOpyb5RN0hutzLkuzRMvftOoIAQK9SOgG04Xe/+10mTJjQf2rcsccee1BNcXrG2WeffchrX/vay6J4ortclGTvukP0gP1bxlNjKyMAdJTSCaBNSy+99IDxGWec8Y6aovSUX/ziF3tNmTJlWhRPdIdrkuxWd4gesFSS97XMnVRHEADoZUongDbdcsstGTt27LPjxx9/fMlPfepTreeFMAKmTp2681prrXXXwl8Jo9ptSd6S5Mm6g/SA9yfpvwX6wdhaBwAdp3QCGIJx48YNGH73u999V11Zes0Pf/jDHVdbbbVf1Z0DFtHdSXZK8vuac/SKD7SMHdgOADVQOgEMwbRp0/LiF7/42fFDDz200le+8pXda4zUMyZNmvTk+eefv/O4ceOurDsLDNGMJDsk+V3NOXrF+5Os3G/81yTH15QFAHqa0glgiNZaa63+w3EnnnjiAXVl6TUbbLDBn84///ydV1111avrzgJtmpFk+yR31Jyjl3ywZXxckjl1BAGAXqd0Ahiim2++ecD43nvvnXD00UfvUlOcnjNlypRZP/nJT940YcIEW+0Y7e5Osl2qs5zojPcmWaNl7rg6ggAASieAIfvHP/6RKVOm9J8ad/zxx7+/rjy9aP3115/905/+9I1rrbXWJfGudoxOtyX5j1jh1GkHt4yPS/JAHUEAAKUTwCL5zW9+M2B89913r261U2dNmjTpyenTp79hypQp06J4YnS5Jsk2cYZTp703ydotc8fUkAMAmEfpBLAInnrqqUyePLn/1LjjjjvuwLry9LKpU6fu/NrXvvayKJ4YHS5KsnW8S10dDm0ZfzPJPXUEAQAqSieARdS62umee+6Z6J3s6vGLX/xir9122+3cKJ6o16lJ3pTkybqD9KD3J1mzZe7IOoIAAP+idAJYRP/3f//3nNVOxx57bOu7JtEhZ5999iEHHnjgcVE8UY8vJ9m77hA97GMt42NjlRMA1E7pBDAMN998c57//Oc/O37wwQdX+uQnP7lvjZF62rHHHnvEV7/61Y9F8URnvT/JJ+oO0cM+nmTVfuO5Sb5WUxYAoJ++uXPn1p0BaENfX1/rN2tfLUGaa8QudlOmTMm0adOeHY8ZM+aW2bNnbzBSn68m9yUZN++/Z86dO3d8nWEW5rzzztt4//33P+mRRx6ZsvBXwyJ7JMleSX5ad5AetmySGUmW7jf35YxgCejeGQDaZ6UTwDBNmzYtSy211LPj2bNnjznggAM+XmOknrfLLrvc8Ktf/eo1r3jFK86LVU+MjCuSvCoKp7r9VwYWTnNSlU4AwCigdAIoYPXVV+8/HHfCCScccMstt4ypKQ5JJk2a9OR11133lne+852nRfFEWSck2SLJ7+oO0uMm5bnvWPffqYonAGAUUDoBFHDjjTdmhRVW6D817jOf+czn68rDv5x66qmfPuqoow6J4oky9kvyvrpDkCT5dMv47iRfrSMIADA4pRNAIWPHjh0w/uEPf7jTj370ow3rSUN/Bx988LlXX331qzfccMMfR/nEork2yUZJvlV3EJIk2yTZo2XuS3UEAQDmT+kEUMhtt932nG12X/jCFz5bVx4GetWrXvXAjTfeuOO+++777SieGJqjk7wyybSFvZCOab22/irJKTXkAAAWQOkEUNDTTz89YDx16tQpX/3qV3evKQ6DOOmkk774/e9//23jxo27MsonFmxGkp2SfLjeGLR4X5LNWua+UEcQAGDB+rztKzRDX19f6zdrXy1BmqtjF7v1118/t9xyy7PjsWPHTps1a9ZGnfr8I+S+JOPm/ffMuXPnjq8zTClvf/vbDz/zzDP3yL/+v8Ezvp2qbHqi7iAMsGyS3yZZvt/cqUn27lQA984A0D4rnQAKu+OOO/LCF77w2fGsWbPG7r333g4VH4W+973vfeJ73/ve2ydMmPCrWPVE5e4kuyTZNwqn0eiwDCycns5zt9oBAKOE0gmgsL///e9ZZ511+k+NO+WUU/b+2c9+9vK6MjF/e+yxx5X33nvvlgcccMAJUTz1uiOSrJ3k/LqDMKgtk7y/Ze4zqVZiAgCjkO110BC21w1bxy9248aNy8yZ/+owpkyZ8sNp06bt3OkchXTl9rpWl1122cRPfepTX7rqqqs2iy13veTSJJ9K8uu6g7BAV2XgWU43J9mw0yHcOwNA+6x0AhghL3jBCwaMp02bNuWzn/3sPjXFoQ1bbbXVPVdeeeXbjjvuuANXWWWVq2PlU7ebmeTdSbaOwmm0OzTPPTz8k3UEAQDaZ6UTNISVTsNWy8Vugw02yM033/zs+IUvfOHdN9xww0brrbfen+vIMww9sdKp1aGHHnrQscce+8G///3vE+vOQlH/TPLFVOcDPb2Q11K/NZP8Jsnz+82dkuRddYRx7wwA7bPSCWAE3XzzzVlqqaWeHf/f//3f6oceeuiRNUZiCI444ohjp0+fvtY73/nOL8aqp25xQpIJqQ6fVjg1w1cysHCak+QTNWUBAIZA6QQwwiZOHLhI5uKLL97mmGOO2aWmOAzRxIkTnz711FM/PXXq1I122223o6J8aqpTk6yX5H1J7q85C+17b5KdWuY+luQPnY8CAAyV7XXQELbXDVutF7u11147d9xxx7PjMWPG3DJt2rSNJk6c2JSVFj25vW4w11577UpHHHHEIeeee+6ucdh4E5ya5JgkN9Ubg0WwSpLbkyzdb+7CJG+uJ07FvTMAtM9KJ4AOeOihhwaMZ8+evf6BBx54XE1xGIZNN930oXPOOeeQm2++eYN+2+6sfhp9Tkjy8iR7R+HUVEdlYOGUJB+pIwgAsGiUTgAdMGfOnEyePHnA3IUXXrjdUUcdtWtNkRim9ddff/app5766blz547/8Ic/fPRLX/rSG6J8qtvDSb6QZKVU2+juWPDLGcX2TbJby9yh8XsKAI1iex00hO11wzYqLnaTJk3K9OnTnx0vueSSv7n22ms3XWeddZ6oMVY7bK9rw3HHHbfTaaed9o4bbrhh49h610lXJfnuvAfNt3qSW5K8qN/cz5NsW0+cgdw7A0D7lE7QEEqnYRsVF7sxY8bk8ccfzz/+8Y9n57baaqvTLrvssr1qjNUOpdMQXH755RO/+93vvuvHP/7xDrNnzx4TBdRIeDzJGUlOS/LrmrNQ1kVJ3thvPDfVIfC31xNnIPfOANA+2+sAOmj27NlZb731BsxddtllW33qU5/at6ZIjIAtt9zynlNPPfXTjz322AYnnHDCAbHtrqSLkuyVZLlUW+gUTt3l4xlYOCXJBzNKCicAYGisdIKGsNJp2EbVxW6dddbJ7bcP+Blq5s9//vNtt9lmm+nz+5iaWek0DH19ff2/fgzd5UnOS/L/kjxYcxZGzmuS/Kpl7vwku9SQZb7cOwNA+5RO0BBKp2EbVRe75z//+VlqqaUye/bsZ+cmTZr08+nTp4+KM0sGoXQahkFKp3FJtk/ypiTb1RJq9LsoyYVJLkhyf81ZGHmLJZmWahvdMx5NsmGSB+oIND/unQGgfbbXAdTgH//4R1ZaaaUBc9OnT5/0tre97Ss1RaKz7k/yzVSl04tTreQ4IclddYaq2V2pvga7pPqavCnV10jh1BtOyMDCKUk+kFFWOAEAQ2OlEzSElU7DNiovdpMnT86NN97Yf2rm0UcfffDBBx98Xl2Z5sNKp2EYZKXTgr5/X5ZkyySbJ3l1kjVHMFqd7kr1rnNXpto+97t641CjfZOc1DJ3XJKDasiyUO6dAaB9SidoCKXTsI3ai92ECRMyY8aM/lMzr7zyytdsvvnmo+nwaaXTMAyxdGq1YpJNkmycZEqSyfPmmuT3SW5MtX3qhiTXzZuDjZNc3zJ3fao/86OSe2cAaN9idQcA6HVPPvlk69S4/fff/4RU24vg90l+NO/xjBWTrJtk7SSTUq2GelmSCZ0O12JGqhVLdyWZnuSOJLdFwcTgFkvyrUHm9+90EABgZFjpBA1hpdOwjeqL3QYbbJCbb765/9TMXXfd9dxzzz33kLoytbDSaRiGudJpKBZLMj7JqklWTlVOvTTJS5Isn2TZJMskWTLVuUmLJ3nhvI975pzHfyZ5Osn/JXkqyV+SPJFkTpLHUh3u/EiSh1OVSQ+mOnfpvnkfB+06JcleLXP7ZfAiatRw7wwA7VM6QUMonYZt1F/sBjvf6XOf+9znP/e5z323rkz9KJ2GoYOlEzTFoUm+1jJ3YpIDasgyJO6dAaB9SidoCKXTsDXiYjdx4sTcc889/admnn322f/51re+9dd1ZZpH6TQMSicY4E1JftIyd02SzWrIMmTunQGgfc9b+EsA6JRHH300Sy65ZP+pce9///uP/81vfrPk/D4GoEFWT7Wtrr/Hk7y781EAgJGmdAIYRebMmZNVV111wNwjjzwy5R3veMfpNUUCKOnUJGNb5vZJdeg8ANBllE4Ao8wdd9yRyZMnD5ibOnXqlF122eXomiIBlHB6nruF7jNJzq0hCwDQAUongFHoxhtvzPrrr99/atx55523y4c//OEP1RQJYDi+kGTPlrkzkhxWQxYAoEOUTgCj1C233JKJEyf2nxp31FFHHXz00UfvUlcmgEXw3iSfbpm7Jsk7a8gCAHSQ0glgFHvooYey3HLL9Z8ad/DBBx997rnnblJXJoAh2C7Jt1rm/pDkHWnIu4oCAItO6QQwij311FNZeumlW6fHvec97/n2Nddcs1IdmQDaNDnJ9weZ3zPJ7zqcBQCogdIJYJSbMWNG1l133QFzs2fPXn+PPfb4/owZM1zHgdFo5SQ/SNLamr8ryaWdjwMA1MEPKwANcNttt2XKlCkD5u69994tdtlll/9XUySA+Vk8ydlJ1miZ/2SSUzqeBgCojdIJoCGmTZv2nOJp2rRpU17/+tefXFMkgMGck2Szlrnjkvx3DVkAgBopnQAaZNq0aVlvvfX6T4279NJLX7fTTjt9va5MAP2ckeTNLXM/SHJQDVkAgJopnQAa5tZbb81aa63Vf2rcD3/4w53e8Y53fKmuTABJTkjy9pa5S5LsXkMWAGAUUDoBNNCdd96ZCRMm9J8ad/rpp++53377/VdNkYDedmSS/Vvmbkiyaw1ZAIBRQukE0FD3339/Vlxxxf5T40466aT9DjrooEPrygT0pC8l+XDL3F1J3pJkTufjAACjhdIJoKH+8Y9/5K9//WvGjh3bf3rcsccee+Chhx7q/BSgEz6XpHWF5YNJdkkys+NpAIBRRekE0GCzZ8/O85///CyzzDL9p8cdccQRh3z0ox/9QF25gJ7w6SSfbZn7U5Kdk9ze+TgAwGijdAJouIcffjhLLbVUllxyyf7T47761a9+5GMf+9j76soFdLVPJ/lCy9xfkuyY5PrOxwEARiOlE0AXeOCBB7L88stniSWW6D897itf+crHDjnkEFvtgJI+l+cWTk8l2T7JlR1PAwCMWkongC5x3333ZYUVVsjiiy/ef3rckUceecgHP/jB1kN+ARbFl/LcLXV/S1U4/bLzcQCA0UzpBNBF7rnnnqywwgrPWfH09a9//YP77bdf62G/AENxZJ57aPhTSd6U5JLOxwEARjulE0CXmTFjRl7ykpc854ynk046ab93vOMdX6orF9BoJyRpXTH5lyTbReEEAMyH0gmgC913330ZM2bMc97V7vTTT99zp512+npduYBGOiPJ/i1zf0ryH7GlDgBYAKUTQJd64IEHsvjii2fs2LH9p8f98Ic/3On1r3/9yXXlAhpj8SQXJHl7y/yDqQonh4YDAAukdALoYg8//HCefvrprLjiiv2nx1166aWv22ijjc6fMWOGvweAwayc5NIkb26ZvyvJtkmu73giAKBx/LAB0OVmz56dWbNmZcKECf2nx02dOnWn1772tb+85pprVqopGjA6TU61bW6zlvkbkrwhye0dTwQANJLSCaAH/P3vf8+MGTOy1lprDZi/9957t3jjG9/403PPPXeTmqIBo8t2SS5LskbL/CVJtk4ys9OBAIDmUjoB9JA777wz66233oC52bNnr7/rrruec8wxx+xSUyxgdHhvkguTLN0y/4NUK5zmdDwRANBoSieAHnPrrbdmypQprdPjPvShDx394Q9/+EM1RALq94Uk3xpk/rgku3c4CwDQJZROAD1o2rRpgxZPRx111ME777zz1+vIBNTm9CSfHmT+k0kO6nAWAKCLKJ0AetS0adOy7rrrtk6PO//883faaKONzr/99tuXrCMX0DGrJ7kqyZ6DPPeuJP/d2TgAQLdROgH0sNtuuy0TJkzIcsst13963NSpU3faaqutLj/nnHMcMA7d6U1Jrslz36HuD6kODD+l04EAgO6jdALocTNmzMiTTz6ZiRMnDph/5JFHpuy2227nfO5zn9unpmjAyDg0yU+SjG2ZvybJ5kku7XgiAKAr9c2dO7fuDEAb+vr6Wr9Z+2oJ0lwudm1Yf/31c8sttyzsZTPnzp07vhN5ukVfX999Scb1n6orCz1tsST/k2SvQZ47I8k741q5UO6dAaB9VjoB8KxbbrllsAPGgebbOMl1Gbxw+kySd0ThBAAUpnQCYIBp06Zl0qRJWWqppeqOApSxb5Lrk0xumX88yW5JDut4IgCgJyidAHiO6dOn53nPe95zznl6xh577PGVDkcChm6xJN9OctIgz12TZNMk53Y0EQDQU5ROAAxqzpw5ueeeezJ5cuviiIz7/ve/v/vaa6998f/+7/9OqiMbsFCvSTItyXsGee7EVO9ad0dHEwEAPcdB4tAQDhIfNhe7kTHzk5/85Je++MUvfqvuIKOZg8TpsI8nOXw+z+2XxPfrMLh3BoD2KZ2gIZROw+ZiN3JmbrXVVpcdf/zx73/5y1/+RN1hRiOlEx2yepJjk7xxkOeuT7J/qtVPDIN7ZwBon+11AAzXuMsuu+ydm2666bXHHHPMLnWHgR61b5JbMnjhdFySTaJwAgA6TOkEwFDN/M53vvOG5Zdf/qb+k0888cTLDz744KPf/OY3nzBjxgx/v0BnrJLk7FSHhb+o5blHk7wtyUGdDgUAkCidAFgE++yzzyU33HDDRttuu+3/JJnZ76lxF1544f6TJ0++0aonGHHvTXJ7kt0Gee78JBsmOauTgQAA+lM6AbBIJkyY8M+f/exn7z388MM/sdhii93T/7nZs2evf/DBBx/9H//xH9++/fbbl64rI3SpNVOVSt9K0vr9NTfVyqZdkjzQ4VwAAAMonQAYlo9//ONnXnfddZtuscUWZ6Rl1dPFF1/8no033vj6z3/+8/vUlQ+6zKFJfpNkp0Ge+3mS9VKd4QQAUDulEwDDNnny5FmXX375Oz7/+c9/NgOLpzz11FNrfu5zn/vsxhtvfP7FF1/88poiQtNtmeSqJF9L8vxBnj80ybapttsBAIwKfd72FZqhr6+v9ZvVW64PjYtdOTPnzp07fn5P3nzzzct9+MMfPvIXv/jF65KMa/3Yvffe+5STTz75syMbcXTp6+u7LwO/Fr5/adeySQ5L8v75PH9hko8kuaNjiXqce2cAaJ+VTgAUtcEGG/zp0ksvfdeRRx55yLLLLntLWrbcnXLKKXuPHTv2xq997Wu715URGuJ9SX6bwQunOUn2T/LmKJwAgFHKSidoCCudhs3FrpwFrnRq9da3vvXIc845Z9cMsuppo402mvaZz3zm8zvssMNNRROOMlY6MUTbJPlsks3m8/wpST6R5A+dCsS/uHcGgPZZ6QTAiDr77LMPOeecc3Z7+ctf/rO0rHqaOnXqTjvuuOOPdt5556/fcsstY2qKCKPFpCTfS3JxBi+cbk61suldUTgBAA1gpRM0hJVOw+ZiV86QVjr196lPfWrfI4888pCnnnpqzcF+3QMOOOCEb37zm18eZr5Rx0onFmLZJP+V6jDwwTyd5DNJDu9YIubLvTMAtM9KJwA65otf/OK3brvttvV23XXXo9LyLndJxp1wwgkHLLvssjd/6lOf2reOfFCDjyeZkfkXTqcmWT0KJwCggax0goaw0mnYXOzKWeSVTv1deOGF63/hC1/49HXXXbdJBjnvaeWVV37ooIMO+vpHP/rRs4b7uepmpRODeH+SjyVZdT7P/yrJF5Jc2rFEtMW9MwC0T+kEDaF0GjYXu3KKlE7POP7443c48sgjD7n33nsnZJDy6WUve9k9H/jAB4770Ic+dF6pz9lpSif6eW+qVU2DbTFNkruTfCnVYeGMQu6dAaB9SidoCKXTsLnYlVO0dHrGZz/72fcce+yxB86ePXtMBimf1lhjjbvf9773Hd/E8knpRKqy6eAka8/n+TlJ/jvJVzuWiEXi3hkA2qd0goZQOg2bi105I1I6PeOggw469IQTTjjg6aefnjjY515ttdVm7L///ic0adud0qmnvT/JB5OsMZ/n5yb5SpIvpyqeGOXcOwNA+5RO0BBKp2FzsStnREunJJkxY8bzvvjFL37qO9/5zrvz3FVPSTJzxRVX/MO73/3u7xx22GHfGsksJSides5SqcqmDyRZeQGvOzbJ15I80IlQlOHeGQDap3SChlA6DZuLXTkjXjo9484771zi8MMP/8Spp576zsynfFpqqaWe2HPPPU8/6KCDjp00adKTncg1VEqnnvGyJPsneV+SJRbwum8mOTLJPZ0IRVnunQGgfUonaAil07C52JXTsdLpGXfeeecSX/3qVz/23e9+d+8MXj4lycwdd9zxxwcccMAJ22677W86GG+hlE5db8sk+ybZYyGvOy7JMVE2NZp7ZwBon9IJGkLpNGwuduV0vHR6xowZM553xBFHHHraaaft9fjjjy+Z+ax+2mijjabttddepx544IE/7HDEQSmdutY+Sd6dZLMFvOavqcqm42IbXVdw7wwA7VM6QUMonYbNxa6c2kqn/j75yU/uf/LJJ7/r97///QqZT/m0/PLL/+mtb33rD97znvf8z5QpU2Z1OuMzlE5dZd0keyV5V5LlF/C6B1Ntozs+DgjvKu6dAaB9SidoCKXTsLnYlTMqSqdnfP3rX9/lO9/5zrtvvfXWdbOArXebb775lXvsscf3DzjggJ90Ml+idOoCz0/y9iTvSLL1Ql47NclJSb490qGoh3tnAGif0gkaQuk0bC525Yyq0ukZ559//sYnnXTSfhdffPE2WUD5NGbMmNnbb7/9T/bcc8/Tt9lmm+mdyKZ0aqwtkrwt1VlNSy/kteenKpp+OtKhqJd7ZwBon9IJGkLpNGwuduWMytLpGbfeeuuYk046ad+zzz77Px955JGxWUABtcYaa9y94447/miPPfY4c/LkySO2/U7p1CjrJNktyVuTrL2Q185K8t15jztHOBejhHtnAGif0gkaQuk0bC525Yzq0qm/E088cbvTTz/9HVdfffVmmX/5lCQzN9xww5t22GGHC3bfffez1l577SdK5lA6jXqrJ9ll3mPTNl7/iySnJjltJEMxOrl3BoD2KZ2gIZROw+ZiV05jSqdnTJ069d9PPvnkvc8///ydH3rooZWykAJq8uTJN73pTW+6cJdddjmvxAoopdOotE6S7ZPsmOSVbbz+wSTfS3JGkltHMBejnHtnAGif0gkaQuk0bC525TSudOrvrLPO2uzMM898+wUXXPDmeVMLLKAmTZo0feutt750++23//GingGldBo1tkiy3bzHem1+zA+SfD/Jj0YqFM3i3hkA2qd0goZQOg2bi105jS6d+jvmmGN2Oe+8895yxRVXbJ4Fl09JMnPs2LGzNt988yu33Xbbi/fff/+L2v08SqfarJTq3ea2SbJtkrFtftzPk5yb5Owkc0YmGk3l3hkA2qd0goZQOg2bi105XVM6PWPGjBnPO+uss3b/8Y9/vOM111zzyrRRQCXJuuuue9trXvOaK173utf9Ytddd71ufi9WOnXMkkm2TLJVktclmTKEj/1lqnegOz/JA8WT0TXcOwNA+5RO0BBKp2FzsSun60qn/mbMmPG8c845560XXnjhmy6//PIt5k23VUJttNFG0175yldes/nmm1+5++67X/3Mk0qnEbN8klfPe2yeZLMhfvzPklyQ5MdRNNEm984A0D6lEzSE0mnYXOzK6erSqdV3vvOdbS688MI3XXHFFZvPmjVrbBZeQCXzSqi11lrrrsmTJ08766yzdo/SqYTJSV6RZJNU7zK37hA/flaqoumieQ9b5xgy984A0D6lEzSE0mnYXOzK6anSqb9LLrlkzYsuumi7yy+/fMtp06Y9s3WrnRKq1fFJbp73uDXJX0tl7BIvSnXQ9wbzHpNTbZVbfBF+rWuSXJLqnKYrSwWkd7l3BoD2KZ2gIZROw+ZiV07Plk6tTj/99K0uvfTS119zzTWvvOuuu9acN70oJdRdSW5PckeS6UnuTPLbJI+VSTpqLZtkjSRrJZmUZO0k6yRZc0EftBC3J7k81RlNv0zy6DAzwgDunQGgfUonaAil07C52JWjdJqPk08+eesrr7zyNddff/3Gt9566zNbvxalhHrGH5PcM+8xI8l9qbbuPZDkwYz+UmrZJCsnWSXV12F8kglJJs57/HuBzzE1ydVJrkpyRZKHCvyaMF/unQGgfUonaAil07C52JWjdGrTT37yk/WvvvrqzQ4//PBPZHjl0/w8meT3SR5OVVDNSrWy50+pCqnZSf6c5PEkf5n3+GuSp5L8Lcnfkzyd5B/51/dIX5LnJ1ksyb8leUGqbW0vSvLieY+lkiydZEyqYmm5VId6j01VJL00yYpJlij8//eBJDckuT7JdUmunff/DTrGvTMAtE/pBA2hdBo2F7tylE5DNMi7130myfrzHsPZStbN7kpyy7zHTUlujHeYYxRw7wwA7Vus7gAA0IMO6/ffS6Q6x2jteY+1UhVRa6RaZdTN/pbq7Kq7Up1jdce8x+2pVnEBANBgSicAqNeTqbaLXT/Ic+NTnX20WqqzkMYlWTXVGUkrp9rqNpr9JdXZUw8kuT/VeVQzktyb6pyq+2pLBgDAiFM6AcDodd+8xy/n8/wySVZIdYbSS1KdqbR8qjOWxsx7fulUZzC9ONWqqhelOqPpBanObFos1RlOz2zZnZvqjKenU5359LdUZ0D9NVVB9pdU5yj9OcmcVOdG/SnVWVKzkjyS6oypP8x7HgCAHqV0AoDmmjPvcWfdQQAAoNXz6g4AAAAAQPdROgEAAABQnNIJAAAAgOKUTgAAAAAUp3QCAAAAoDilEwAAAADFKZ0AAAAAKE7pBAAAAEBxSicAAAAAilM6AQAAAFCc0gkAAACA4pROAAAAABSndAIAAACgOKUTAAAAAMUpnQAAAAAoTukEAAAAQHFKJwAAAACKUzoBAAAAUJzSCQAAAIDilE4AAAAAFKd0AgAAAKA4pRMAAAAAxSmdAAAAAChO6QQAAABAcUonAAAAAIpTOgEAAABQnNIJAAAAgOKUTgAAAAAUp3QCAAAAoDilEwAAAADFKZ0AAAAAKE7pBAAAAEBxSicAAAAAilM6AQAAAFCc0gkAAACA4pROAAAAABSndAIAAACgOKUTAAAAAMUpnQAAAAAoTukEAAAAQHFKJwAAAACKUzoBAAAAUJzSCQAAAIDilE4AAAAAFKd0AgAAAKA4pRMAAAAAxSmdAAAAAChO6QQAAABAcUonAAAAAIpTOgEAAABQnNIJAAAAgOKUTgAAAAAUp3QCAAAAoDilEwAAAADFKZ0AAAAAKE7pBAAAAEBxSicAAAAAilM6AQAAAFCc0gkAAACA4pROAAAAABSndAIAAACgOKUTAAAAAMUpnQAAAAAoTukEAAAAQHFKJwAAAACKUzoBAAAAUJzSCQAAAIDilE4AAAAAFKd0AgAAAKA4pRMAAAAAxSmdAAAAAChO6QQAAABAcUonAAAAAIpTOgEAAABQnNIJAAAAgOKUTgAAAAAUp3QCAAAAoDilEwAAAADFKZ0AAAAAKE7pBAAAAEBxSicAAAAAilM6AQAAAFCc0gkAAACA4pROAAAAABSndAIAAACgOKUTAAAAAMUpnQAAAAAoTukEAAAAQHFKJwAAAACKUzoBAAAAUJzSCQAAAIDilE4AAAAAFKd0AuD/t3MHJwzDQAAEOXD/PaYS5R8IOMmCbDJTwX1kzKITAABATnQCAAAAICc6AQAAAJATnQAAAADIiU4AAAAA5EQnAAAAAHKiEwAAAAA50QkAAACAnOgEAAAAQE50AgAAACAnOgEAAACQE50AAAAAyIlOAAAAAOREJwAAAAByohMAAAAAOdEJAAAAgJzoBAAAAEBOdAIAAAAgJzoBAAAAkBOdAAAAAMiJTgAAAADkRCcAAAAAcqITAAAAADnRCQAAAICc6AQAAABATnQCAAAAICc6AQAAAJATnQAAAADIiU4AAAAA5EQnAAAAAHKiEwAAAAA50QkAAACAnOgEAAAAQE50AgAAACAnOgEAAACQE50AAAAAyIlOAAAAAOREJwAAAAByohMAAAAAOdEJAAAAgJzoBAAAAEBOdAIAAAAgJzoBAAAAkBOdAAAAAMiJTgAAAADkRCcAAAAAcqITAAAAADnRCQAAAICc6AQAAABATnQCAAAAICc6AQAAAJATnQAAAADIiU4AAAAA5EQnAAAAAHKiEwAAAAC5Y/cAANzPzDx2zwAAAFzbrLV2zwCcMDOvh3W2DHJfPnZcifMLN+XfGQDOs14HAAAAQE50AgAAACDnTSfgX1hn+o31TgAA4CNuOgEAAACQE50AAAAAyIlOAAAAAOREJwAAAAByohMAAAAAOdEJAAAAgJzoBAAAAEBOdAIAAAAgJzoBAAAAkBOdAAAAAMiJTgAAAADkRCcAAAAAcqITAAAAADnRCQAAAICc6AQAAABATnQCAAAAICc6AQAAAJATnQAAAADIiU4AAAAA5EQnAAAAAHKiEwAAAAA50QkAAACAnOgEAAAAQE50AgAAACAnOgEAAACQE50AAAAAyIlOAAAAAOREJwAAAAByohMAAAAAOdEJAAAAgJzoBAAAAEBOdAIAAAAgJzoBAAAAkBOdAAAAAMiJTgAAAADkRCcAAAAAcqITAAAAADnRCQAAAICc6AQAAABATnQCAAAAICc6AQAAAJATnQAAAADIiU4AAAAA5EQnAAAAAHKiEwAAAAA50QkAAACAnOgEAAAAQE50AgAAACAnOgEAAACQE50AAAAAyIlOAAAAAOREJwAAAAByohMAAAAAOdEJAAAAgJzoBAAAAEBOdAIAAAAgJzoBAAAAkBOdAAAAAMiJTgAAAADkRCcAAAAAcqITAAAAADnRCQAAAICc6AQAAABATnQCAAAAICc6AQAAAJATnQAAAADIiU4AAAAA5EQnAAAAAHKiEwAAAAA50QkAAACAnOgEAAAAQE50AgAAACAnOgEAAACQE50AAAAAyIlOAAAAAOREJwAAAAByohMAAAAAOdEJAAAAgJzoBAAAAEBOdAIAAAAgJzoBAAAAkBOdAAAAAMiJTgAAAADkRCcAAAAAcqITAAAAADnRCQAAAICc6AQAAABATnQCAAAAICc6AQAAAJATnQAAAADIiU4AAAAA5EQnAAAAAHKiEwAAAAA50QkAAACAnOgEAAAAQE50AgAAACAnOgEAAACQE50AAAAAyIlOAAAAAOREJwAAAAByohMAAAAAOdEJAAAAgJzoBAAAAEBOdAIAAAAgJzoBAAAAkBOdAAAAAMiJTgAAAADkRCcAAAAAcqITAAAAADnRCQAAAICc6AQAAABATnQCAAAAICc6AQAAAJATnQAAAADIiU4AAAAA5EQnAAAAAHKiEwAAAAA50QkAAACAnOgEAAAAQE50AgAAACAnOgEAAACQE50AAAAAyIlOAAAAAOREJwAAAAByohMAAAAAOdEJAAAAgJzoBAAAAEBOdAIAAAAgJzoBAAAAkBOdAAAAAMiJTgAAAADkRCcAAAAAcqITAAAAADnRCQAAAICc6AQAAABATnQCAAAAICc6AQAAAJATnQAAAADIiU4AAAAA5EQnAAAAAHKiEwAAAAA50QkAAACAnOgEAAAAQE50AgAAACAnOgEAAACQE50AAAAAyIlOAAAAAOREJwAAAAByohMAAAAAOdEJAAAAgJzoBAAAAEBOdAIAAAAgJzoBAAAAkBOdAAAAAMiJTgAAAADkRCcAAAAAcqITAAAAADnRCQAAAICc6AQAAABATnQCAAAAICc6AQAAAJATnQAAAADIiU4AAAAA5EQnAAAAAHKiEwAAAAA50QkAAACAnOgEAAAAQE50AgAAACAnOgEAAACQE50AAAAAyIlOAAAAAOREJwAAAAByohMAAAAAOdEJAAAAgJzoBAAAAEBOdAIAAAAgJzoBAAAAkBOdAAAAAMiJTgAAAADkRCcAAAAAcqITAAAAADnRCQAAAICc6AQAAABATnQCAAAAICc6AQAAAJATnQAAAADIiU4AAAAA5EQnAAAAAHKiEwAAAAA50QkAAACAnOgEAAAAQE50AgAAACAnOgEAAACQE50AAAAAyIlOAAAAAOSO3QMAX1u7BwAAAIB33HQCAAAAICc6AQAAAJATnQAAAADIzVqehQEAAACg5aYTAAAAADnRCQAAAICc6AQAAABATnQCAAAAICc6AQAAAJATnQAAAADIiU4AAAAA5EQnAAAAAHKiEwAAAAA50QkAAACAnOgEAAAAQE50AgAAACAnOgEAAACQE50AAAAAyIlOAAAAAOREJwAAAAByohMAAAAAOdEJAAAAgJzoBAAAAEBOdAIAAAAgJzoBAAAAkBOdAAAAAMiJTgAAAADkRCcAAAAAcqITAAAAADnRCQAAAICc6AQAAABATnQCAAAAICc6AQAAAJATnQAAAADIiU4AAAAA5EQnAAAAAHKiEwAAAAA50QkAAACAnOgEAAAAQE50AgAAACAnOgEAAACQE50AAAAAyIlOAAAAAOREJwAAAAByohMAAAAAOdEJAAAAgJzoBAAAAEBOdAIAAAAgJzoBAAAAkBOdAAAAAMiJTgAAAADkRCcAAAAAcqITAAAAADnRCQAAAICc6AQAAABATnQCAAAAICc6AQAAAJATnQAAAADIiU4AAAAA5EQnAAAAAHKiEwAAAAA50QkAAACAnOgEAAAAQE50AgAAACAnOgEAAACQE50AAAAAyIlOAAAAAOREJwAAAAByohMAAAAAOdEJAAAAgJzoBAAAAEBOdAIAAAAgJzoBAAAAkBOdAAAAAMiJTgAAAADkRCcAAAAAcqITAAAAADnRCQAAAICc6AQAAABATnQCAAAAICc6AQAAAJATnQAAAADIiU4AAAAA5EQnAAAAAHKiEwAAAAA50QkAAACAnOgEAAAAQE50AgAAACAnOgEAAACQE50AAAAAyIlOAAAAAOREJwAAAAByohMAAAAAOdEJAAAAgJzoBAAAAEBOdAIAAAAgJzoBAAAAkBOdAAAAAMiJTgAAAADkRCcAAAAAcqITAAAAADnRCQAAAICc6AQAAABATnQCAAAAICc6AQAAAJATnQAAAADIiU4AAAAA5EQnAAAAAHKiEwAAAAA50QkAAACAnOgEAAAAQE50AgAAACAnOgEAAACQE50AAAAAyIlOAAAAAOREJwAAAAByohMAAAAAOdEJAAAAgJzoBAAAAEBOdAIAAAAgJzoBAAAAkBOdAAAAAMiJTgAAAADkRCcAAAAAcqITAAAAADnRCQAAAICc6AQAAABATnQCAAAAICc6AQAAAJATnQAAAADIiU4AAAAA5EQnAAAAAHKiEwAAAAA50QkAAACAnOgEAAAAQE50AgAAACAnOgEAAACQE50AAAAAyIlOAAAAAOREJwAAAAByohMAAAAAOdEJAAAAgJzoBAAAAEBOdAIAAAAgJzoBAAAAkBOdAAAAAMiJTgAAAADkRCcAAAAAcqITAAAAADnRCQAAAICc6AQAAABATnQCAAAAICc6AQAAAJATnQAAAADIiU4AAAAA5EQnAAAAAHKiEwAAAAA50QkAAACAnOgEAAAAQE50AgAAACAnOgEAAACQE50AAAAAyIlOAAAAAOREJwAAAAByohMAAAAAOdEJAAAAgJzoBAAAAEBOdAIAAAAgJzoBAAAAkBOdAAAAAMiJTgAAAADkRCcAAAAAcqITAAAAADnRCQAAAICc6AQAAABATnQCAAAAICc6AQAAAJATnQAAAADIiU4AAAAA5EQnAAAAAHKiEwAAAAA50QkAAACAnOgEAAAAQE50AgAAACAnOgEAAACQE50AAAAAyIlOAAAAAOREJwAAAAByohMAAAAAOdEJAAAAgJzoBAAAAEBOdAIAAAAgJzoBAAAAkBOdAAAAAMiJTgAAAADkRCcAAAAAcqITAAAAADnRCQAAAICc6AQAAABATnQCAAAAICc6AQAAAJATnQAAAADIiU4AAAAA5EQnAAAAAHKiEwAAAAA50QkAAACAnOgEAAAAQE50AgAAACAnOgEAAACQE50AAAAAyIlOAAAAAOREJwAAAAByohMAAAAAOdEJAAAAgJzoBAAAAEBOdAIAAAAgJzoBAAAAkBOdAAAAAMiJTgAAAADkRCcAAAAAcqITAAAAADnRCQAAAICc6AQAAABATnQCAAAAICc6AQAAAJATnQAAAADIiU4AAAAA5EQnAAAAAHKiEwAAAAA50QkAAACAnOgEAAAAQE50AgAAACAnOgEAAACQE50AAAAAyIlOAAAAAOREJwAAAAByohMAAAAAOdEJAAAAgJzoBAAAAEBOdAIAAAAgJzoBAAAAkBOdAAAAAMiJTgAAAADkRCcAAAAAcqITAAAAADnRCQAAAICc6AQAAABATnQCAAAAICc6AQAAAJATnQAAAADIiU4AAAAA5EQnAAAAAHKiEwAAAAA50QkAAACAnOgEAAAAQE50AgAAACAnOgEAAACQE50AAAAAyIlOAAAAAOREJwAAAAByohMAAAAAOdEJAAAAgJzoBAAAAEBOdAIAAAAgJzoBAAAAkBOdAAAAAMiJTgAAAADkRCcAAAAAcqITAAAAADnRCQAAAICc6AQAAABATnQCAAAAICc6AQAAAJATnQAAAADIiU4AAAAA5EQnAAAAAHKiEwAAAAA50QkAAACAnOgEAAAAQE50AgAAACAnOgEAAACQE50AAAAAyIlOAAAAAOREJwAAAAByohMAAAAAOdEJAAAAgJzoBAAAAEBOdAIAAAAgJzoBAAAAkBOdAAAAAMiJTgAAAADkRCcAAAAAcqITAAAAADnRCQAAAICc6AQAAABATnQCAAAAICc6AQAAAJATnQAAAADIiU4AAAAA5EQnAAAAAHKiEwAAAAA50QkAAACAnOgEAAAAQE50AgAAACAnOgEAAACQE50AAAAAyIlOAAAAAOREJwAAAAByohMAAAAAOdEJAAAAgJzoBAAAAEBOdAIAAAAgJzoBAAAAkBOdAAAAAMiJTgAAAADkRCcAAAAAcqITAAAAADnRCQAAAICc6AQAAABATnQCAAAAICc6AQAAAJATnQAAAADIiU4AAAAA5EQnAAAAAHKiEwAAAAA50QkAAACAnOgEAAAAQE50AgAAACAnOgEAAACQE50AAAAAyIlOAAAAAOREJwAAAAByohMAAAAAOdEJAAAAgJzoBAAAAEBOdAIAAAAgJzoBAAAAkBOdAAAAAMiJTgAAAADkRCcAAAAAcqITAAAAADnRCQAAAICc6AQAAABATnQCAAAAICc6AQAAAJATnQAAAADIiU4AAAAA5EQnAAAAAHKiEwAAAAA50QkAAACAnOgEAAAAQE50AgAAACAnOgEAAACQE50AAAAAyIlOAAAAAOREJwAAAAByohMAAAAAOdEJAAAAgJzoBAAAAEBOdAIAAAAgJzoBAAAAkBOdAAAAAMiJTgAAAADkRCcAAAAAcqITAAAAADnRCQAAAICc6AQAAABATnQCAAAAICc6AQAAAJATnQAAAADIiU4AAAAA5EQnAAAAAHKiEwAAAAA50QkAAACAnOgEAAAAQE50AgAAACAnOgEAAACQE50AAAAAyIlOAAAAAOREJwAAAAByohMAAAAAOdEJAAAAgJzoBAAAAEBOdAIAAAAgJzoBAAAAkBOdAAAAAMiJTgAAAADkRCcAAAAAcqITAAAAADnRCQAAAICc6AQAAABATnQCAAAAICc6AQAAAJATnQAAAADIiU4AAAAA5EQnAAAAAHKiEwAAAAA50QkAAACAnOgEAAAAQE50AgAAACAnOgEAAACQE50AAAAAyIlOAAAAAOREJwAAAAByohMAAAAAOdEJAAAAgJzoBAAAAEBOdAIAAAAgJzoBAAAAkBOdAAAAAMiJTgAAAADkRCcAAAAAcqITAAAAADnRCQAAAICc6AQAAABATnQCAAAAICc6AQAAAJATnQAAAADIiU4AAAAA5EQnAAAAAHKiEwAAAAA50QkAAACAnOgEAAAAQE50AgAAACAnOgEAAACQE50AAAAAyIlOAAAAAOREJwAAAAByohMAAAAAOdEJAAAAgJzoBAAAAEBOdAIAAAAgJzoBAAAAkBOdAAAAAMiJTgAAAADkRCcAAAAAcqITAAAAADnRCQAAAICc6AQAAABATnQCAAAAICc6AQAAAJATnQAAAADIiU4AAAAA5EQnAAAAAHKiEwAAAAA50QkAAACAnOgEAAAAQE50AgAAACAnOgEAAACQE50AAAAAyIlOAAAAAOREJwAAAAByohMAAAAAOdEJAAAAgJzoBAAAAEBOdAIAAAAgJzoBAAAAkBOdAAAAAMiJTgAAAADkRCcAAAAAcqITAAAAADnRCQAAAICc6AQAAABATnQCAAAAICc6AQAAAJATnQAAAADIiU4AAAAA5EQnAAAAAHKiEwAAAAA50QkAAACAnOgEAAAAQE50AgAAACAnOgEAAACQE50AAAAAyIlOAAAAAOREJwAAAAByohMAAAAAOdEJAAAAgJzoBAAAAEBOdAIAAAAgJzoBAAAAkBOdAAAAAMiJTgAAAADkRCcAAAAAcqITAAAAADnRCQAAAICc6AQAAABATnQCAAAAICc6AQAAAJATnQAAAADIiU4AAAAA5EQnAAAAAHKiEwAAAAA50QkAAACAnOgEAAAAQE50AgAAACAnOgEAAACQE50AAAAAyIlOAAAAAOREJwAAAAByohMAAAAAuSeBFMKurc3bFQAAAABJRU5ErkJggg==;" vertex="1" parent="1">
          <mxGeometry x="703" y="599.5" width="91.31" height="137" as="geometry" />
        </mxCell>
        <mxCell id="QeE7AU9Mmnq67cAiNnj4-4" value="" style="whiteSpace=wrap;html=1;fillColor=#f5f5f5;fontColor=#333333;strokeColor=#666666;strokeWidth=8;" vertex="1" parent="1">
          <mxGeometry x="213" y="1095" width="1287.68" height="148" as="geometry" />
        </mxCell>
      </root>
    </mxGraphModel>
  </diagram>
</mxfile>
